<ttFont>
          <CharString index="0">
            rmoveto
            221 144 139 217 29 hvcurveto
            71 callgsubr
            182 -117 87 -198 -219 -140 -136 -216 -33 vhcurveto
            -18 callgsubr
            vhcurveto
            -2 123 rmoveto
            -108 -54 57 100 18 2 20 9 52 hvcurveto
            136 23 83 81 133 hhcurveto
            110 54 -58 -99 -37 callgsubr
            hvcurveto
            -136 -23 -83 -81 -135 hhcurveto
            return
          </CharString>
          <CharString index="1">
            -107 callgsubr
            endchar
          </CharString>
          <CharString index="2">
            rmoveto
            184 107 90 177 31 hvcurveto
            76 431 rlineto
            -145 -78 callsubr
            98 -71 172 vhcurveto
            return
          </CharString>
          <CharString index="3">
            -106 callgsubr
            endchar
          </CharString>
          <CharString index="4">
            -94 -17 -56 -49 -69 hhcurveto
            -42 -25 18 47 15 3 15 3 18 hvcurveto
            54 304 -79 callsubr
            -56 -313 -6 callsubr
            return
          </CharString>
          <CharString index="5">
            545 -72 callsubr
            -400 -11 callgsubr
            350 -72 callsubr
            -350 hlineto
            26 151 rlineto
            394 -72 callsubr
            -539 hlineto
            return
          </CharString>
          <CharString index="6">
            rmoveto
            117 hlineto
            21 118 rlineto
            -5 callsubr
            189 -118 -44 callgsubr
            21 118 rlineto
            -119 hlineto
            return
          </CharString>
          <CharString index="7">
            rmoveto
            110 -5 callgsubr
            -138 hlineto
            return
          </CharString>
          <CharString index="8">
            rmoveto
            127 75 94 115 60 hvcurveto
            259 499 103 callsubr
            -122 -248 rlineto
            -23 -46 -34 -90 0 vvcurveto
            -5 hlineto
            0 -11 96 -9 41 vhcurveto
            -55 247 76 callgsubr
            113 -526 rlineto
            -52 -28 -32 -21 -46 hhcurveto
            -65 hlineto
            -16 -96 rlineto
            0 33 -13 58 vhcurveto
            return
          </CharString>
          <CharString index="9">
            47 34 -37 50 hhcurveto
            68 36 57 65 11 hvcurveto
            -70 hlineto
            -39 callsubr
            -47 -34 37 -51 hhcurveto
            -67 -35 -57 -65 -11 hvcurveto
            return
          </CharString>
          <CharString index="10">
            94 17 56 49 69 hhcurveto
            42 25 -18 -47 -15 -3 -15 -3 -18 hvcurveto
            -54 -304 rlineto
            -21 callgsubr
            56 313 rlineto
            6 32 4 27 26 vvcurveto
            102 -70 38 -80 return
          </CharString>
          <CharString index="11">
            rmoveto
            163 81 81 164 28 hvcurveto
            82 463 -79 callsubr
            -44 -244 -13 callsubr
            49 274 -79 callsubr
            -51 -283 -6 callsubr
            70 64 37 43 36 vhcurveto
            6 hlineto
            -7 -39 rlineto
            -86 -16 -45 -43 -74 hhcurveto
            return
          </CharString>
          <CharString index="12">
            rmoveto
            135 hlineto
            23 130 76 callgsubr
            return
          </CharString>
          <CharString index="13">
            -100 callgsubr
            -21 -89 callsubr
            return
          </CharString>
          <CharString index="14">
            rmoveto
            163 113 90 176 29 hvcurveto
            77 432 -64 callgsubr
            -31 -174 rlineto
            hintmask 11110100
            -119 -21 -59 -62 -87 hhcurveto
            -58 -33 28 54 9 1 10 2 10 hvcurveto
            43 244 -64 callgsubr
            -43 -241 rlineto
            -4 -24 -2 -22 -21 vvcurveto
            -108 57 -62 122 74 61 23 55 45 vhcurveto
            7 hlineto
            -10 -54 rlineto
            -80 -14 -57 -41 -83 hhcurveto
            return
          </CharString>
          <CharString index="15">
            rmoveto
            3 15 1 14 14 vvcurveto
            138 -135 65 -164 -112 -92 -33 -59 -67 vhcurveto
            -93 -81 -45 -129 -138 vvcurveto
            -189 107 -81 182 101 67 33 55 67 vhcurveto
            hintmask 01111110
            -76 100 vlineto
            66 373 rlineto
            -353 hlineto
            -21 -119 rlineto
            207 hlineto
            hintmask 10111110
            -88 -16 -96 -55 -110 hhcurveto
            -102 -50 49 100 20 3 23 9 55 hvcurveto
            138 23 84 79 144 hhcurveto
            77 66 -38 -67 -6 0 -6 -1 -6 hvcurveto
            endchar
          </CharString>
          <CharString index="16">
            rmoveto
            -102 callsubr
            endchar
          </CharString>
          <CharString index="17">
            -48 -14 25 23 hvcurveto
            -90 hlineto
            -2 -8 0 -9 -8 vvcurveto
            -58 38 -54 113 vhcurveto
            return
          </CharString>
          <CharString index="18">
            -735 -107 callgsubr
            return
          </CharString>
          <CharString index="19">
            188 437 rlineto
            12 29 19 68 0 vvcurveto
            4 hlineto
            0 1 -62 2 -35 vhcurveto
            30 -437 rlineto
            163 hlineto
            303 686 rlineto
            -147 hlineto
            -176 -422 rlineto
            -14 -34 -16 -62 0 vvcurveto
            -5 hlineto
            0 0 69 -2 27 vhcurveto
            -26 422 rlineto
            -175 hlineto
            -175 -422 rlineto
            -12 -29 -18 -67 0 vvcurveto
            -5 hlineto
            0 0 66 -2 30 vhcurveto
            -29 422 rlineto
            -136 hlineto
            endchar
          </CharString>
          <CharString index="20">
            145 hlineto
            45 256 rlineto
            196 hlineto
            76 -256 rlineto
            153 hlineto
            -91 277 rlineto
            86 28 73 72 119 vvcurveto
            118 -79 72 -169 vhcurveto
            -314 hlineto
            90 -309 rmoveto
            33 186 rlineto
            196 hlineto
            62 31 -29 -49 -66 -41 -42 -75 hvcurveto
            return
          </CharString>
          <CharString index="21">
            -735 -106 callgsubr
            return
          </CharString>
          <CharString index="22">
            rmoveto
            105 hlineto
            -55 132 rlineto
            -133 hlineto
            -2 -3 rlineto
            260 -129 rmoveto
            105 hlineto
            -55 132 rlineto
            -133 hlineto
            -2 -3 rlineto
            return
          </CharString>
          <CharString index="23">
            rmoveto
            46 37 12 21 28 hvcurveto
            36 27 20 41 7 36 rrcurveto
            -90 hlineto
            return
          </CharString>
          <CharString index="24">
            rmoveto
            131 123 47 145 hvcurveto
            hintmask 11101100
            -22 callgsubr
            hintmask 11101010
            49 32 -16 -34 hvcurveto
            -1 -10 rlineto
            133 hlineto
            0 7 21 23 vvcurveto
            77 -91 45 -125 -134 -108 -60 -121 vhcurveto
            hintmask 11101100
            -23 callsubr
            hintmask 11110100
            -48 -48 14 44 3 1 7 2 5 hvcurveto
            -133 hlineto
            0 -7 -16 -23 vvcurveto
            -85 82 -55 147 vhcurveto
            return
          </CharString>
          <CharString index="25">
            rmoveto
            99 41 71 70 12 hvcurveto
            100 567 -79 callsubr
            -98 -553 rlineto
            -28 -5 -17 -15 -28 hhcurveto
            -52 95 callgsubr
          </CharString>
          <CharString index="26">
            145 hlineto
            49 277 332 409 rlineto
            -159 hlineto
            -225 -280 rlineto
            -5 hlineto
            -129 280 rlineto
            -149 hlineto
            190 -409 rlineto
            return
          </CharString>
          <CharString index="27">
            rmoveto
            139 87 70 135 24 hvcurveto
            87 493 rlineto
            -146 hlineto
            -87 -491 rlineto
            -52 -9 -36 -33 -60 hhcurveto
            -57 -20 21 44 8 2 22 8 92 callsubr
            -9 -41 -3 -25 -25 vvcurveto
            -104 80 -53 144 vhcurveto
            endchar
          </CharString>
          <CharString index="28">
            rlineto
            -58 callgsubr
            return
          </CharString>
          <CharString index="29">
            -103 callgsubr
            -141 return
          </CharString>
          <CharString index="30">
            -731 rmoveto
            -105 callgsubr
            return
          </CharString>
          <CharString index="31">
            rmoveto
            26 36 8 8 21 hvcurveto
            17 96 rlineto
            -48 hlineto
            -24 -13 11 18 8 4 22 2 11 hvcurveto
            43 244 rlineto
            91 hlineto
            20 112 rlineto
            -91 102 callgsubr
            -144 hlineto
            -26 -148 rlineto
            -63 hlineto
            -20 -112 rlineto
            63 hlineto
            -40 -229 64 callsubr
            -56 29 -49 97 vhcurveto
            return
          </CharString>
          <CharString index="32">
            rlineto
            28 5 17 15 28 hhcurveto
            50 hlineto
            17 96 rlineto
            8 -21 -42 8 -32 hhcurveto
            -103 -43 -73 -72 -12 hvcurveto
            -10 -60 rlineto
            -75 hlineto
            -20 -112 rlineto
            75 hlineto
            -78 -441 rlineto
            -28 -5 -17 -15 -28 hhcurveto
            -50 hlineto
            -17 -96 rlineto
            return
          </CharString>
          <CharString index="33">
            5 3 15 67 379 vhcurveto
            -116 hlineto
            return
          </CharString>
          <CharString index="34">
            733 -95 callgsubr
            return
          </CharString>
          <CharString index="35">
            hlineto
            22 123 rlineto
            return
          </CharString>
          <CharString index="36">
            731 rmoveto
            90 hlineto
            20 6 26 28 47 hhcurveto
            -61 callgsubr
            59 -49 60 -90 -133 -41 -73 -64 -11 vhcurveto
            return
          </CharString>
          <CharString index="37">
            37 319 rmoveto
            -63 -26 30 57 74 26 121 120 59 32 -30 -60 -77 -35 -115 105 callgsubr
          </CharString>
          <CharString index="38">
            123 464 123 return
          </CharString>
          <CharString index="39">
            731 -92 callgsubr
            return
          </CharString>
          <CharString index="40">
            91 31 50 62 20 112 10 54 rcurveline
            -301 -500 -40 callsubr
            return
          </CharString>
          <CharString index="41">
            123 166 123 151 123 return
          </CharString>
          <CharString index="42">
            26 24 vvcurveto
            135 -72 62 -146 return
          </CharString>
          <CharString index="43">
            -57 callsubr
            -66 -59 -33 -40 76 callsubr
            return
          </CharString>
          <CharString index="44">
            -12 -69 callsubr
            return
          </CharString>
          <CharString index="45">
            rmoveto
            77 440 rlineto
            139 hlineto
            99 50 -54 -92 -21 -3 -22 -8 -46 hvcurveto
            -128 -22 -80 -77 -123 hhcurveto
            return
          </CharString>
          <CharString index="46">
            rmoveto
            -57 callgsubr
            return
          </CharString>
          <CharString index="47">
            112 -112 -36 callsubr
            return
          </CharString>
          <CharString index="48">
            -183 116 -86 197 return
          </CharString>
          <CharString index="49">
            rmoveto
            305 hlineto
            15 88 rlineto
            -305 hlineto
            return
          </CharString>
          <CharString index="50">
            -21 callgsubr
            87 callgsubr
            -97 callsubr
            return
          </CharString>
          <CharString index="51">
            -68 callgsubr
            -49 -274 rlineto
            return
          </CharString>
          <CharString index="52">
            -72 -12 -45 callgsubr
            return
          </CharString>
          <CharString index="53">
            34 149 414 150 return
          </CharString>
          <CharString index="54">
            119 0 123 452 123 hstem
            52 142 415 152 vstem
            -25 hmoveto
            331 hlineto
            20 111 rlineto
            -88 17 -44 55 83 vvcurveto
            16 2 16 8 50 vhcurveto
            152 26 85 75 138 hhcurveto
            103 53 -52 -105 -21 -3 -24 -9 -57 hvcurveto
            -18 -113 -72 -74 -110 -19 -19 -110 rcurveline
            332 -72 callsubr
            -51 hlineto
            -21 -43 -11 -3 -40 hvcurveto
            107 61 77 110 152 vvcurveto
            169 -116 97 -200 -236 -157 -171 -218 -89 36 -66 56 -45 vhcurveto
            4 -39 -38 10 -20 hhcurveto
            -50 hlineto
            endchar
          </CharString>
          <CharString index="55">
            rmoveto
            72 hlineto
            96 168 22 125 -47 callsubr
            -25 -137 rlineto
            55 hlineto
            return
          </CharString>
          <CharString index="56">
            rmoveto
            -25 -137 rlineto
            59 hlineto
            return
          </CharString>
          <CharString index="57">
            39 0 123 189 85 166 89 callsubr
            404 686 rmoveto
            -274 hlineto
            -51 -289 rlineto
            -63 hlineto
            -14 -85 rlineto
            62 hlineto
            -55 -312 rlineto
            -67 callgsubr
            126 -358 rmoveto
            -128 -22 -80 -77 -123 hhcurveto
            -129 hlineto
            33 189 rlineto
            139 hlineto
            15 85 rlineto
            -139 -11 callgsubr
            139 hlineto
            99 50 -54 -92 -21 -3 -22 -8 -46 hvcurveto
            endchar
          </CharString>
          <CharString index="58">
            24 133 273 133 return
          </CharString>
          <CharString index="59">
            145 -41 callsubr
            return
          </CharString>
          <CharString index="60">
            rlineto
            -138 hlineto
            return
          </CharString>
          <CharString index="61">
            rmoveto
            105 hlineto
            68 129 -1 3 rlineto
            -123 hlineto
            return
          </CharString>
          <CharString index="62">
            -100 callgsubr
            -128 -135 rlineto
            -9 callgsubr
            241 21 callgsubr
            return
          </CharString>
          <CharString index="63">
            hlineto
            -68 callgsubr
            return
          </CharString>
          <CharString index="64">
            106 137 91 109 107 return
          </CharString>
          <CharString index="65">
            -107 -152 -21 161 121 -96 -21 29 57 callsubr
            hstemhm
            -38 596 hintmask 10011100
            -38 -173 -3 callgsubr
            hintmask 10101100
            29 165 rlineto
            hintmask 11001100
            -3 14 14 -1 14 hhcurveto
            71 65 38 45 37 hvcurveto
            7 hlineto
            hintmask 10011100
            -69 callgsubr
            hintmask 11001100
            -94 -17 -56 -49 -69 hhcurveto
            -42 -25 18 47 15 3 15 3 18 hvcurveto
            54 304 -79 callsubr
            endchar
          </CharString>
          <CharString index="66">
            hlineto
            121 686 -64 callgsubr
            return
          </CharString>
          <CharString index="67">
            rmoveto
            -136 -23 -83 -81 -135 hhcurveto
            -108 -54 57 100 18 2 20 9 52 hvcurveto
            return
          </CharString>
          <CharString index="68">
            -28 -9 -13 -9 -19 return
          </CharString>
          <CharString index="69">
            -21 -7 -27 -27 -47 hhcurveto
            return
          </CharString>
          <CharString index="70">
            -135 hlineto
            return
          </CharString>
          <CharString index="71">
            119 316 115 -12 -20 return
          </CharString>
          <CharString index="72">
            -75 callgsubr
            endchar
          </CharString>
          <CharString index="73">
            rmoveto
            -63 -27 34 63 75 22 144 125 59 32 -34 -67 -93 -35 -122 -113 hvcurveto
            return
          </CharString>
          <CharString index="74">
            17 138 227 137 return
          </CharString>
          <CharString index="75">
            hstemhm
            8 137 -87 141 150 142 -114 139 return
          </CharString>
          <CharString index="76">
            41 32 142 53 112 vvcurveto
            39 -16 58 -97 -78 -63 -43 -87 vhcurveto
            80 hlineto
            3 18 rlineto
            31 5 20 12 28 hhcurveto
            26 9 -17 -16 -87 -194 -25 -21 -130 hvcurveto
            return
          </CharString>
          <CharString index="77">
            17 96 rlineto
            -29 hlineto
            return
          </CharString>
          <CharString index="78">
            10 callsubr
            hstem
            542 150 vstem
            9 hmoveto
            -87 callsubr
            return
          </CharString>
          <CharString index="79">
            -24 hlineto
            -12 -69 rlineto
            32 hlineto
            24 19 -7 -27 -37 -24 -16 -29 -26 -15 11 21 3 0 3 2 11 hvcurveto
            -83 hlineto
            -3 -15 0 -8 -7 vvcurveto
            -54 42 -33 82 vhcurveto
            return
          </CharString>
          <CharString index="80">
            95 85 callsubr
            414 150 vstem
            return
          </CharString>
          <CharString index="81">
            -51 callsubr
            -17 -28 -26 -19 -36 -13 rrcurveto
            -102 56 callsubr
            return
          </CharString>
          <CharString index="82">
            rlineto
            41 hlineto
            28 10 -6 -13 -23 -20 -6 -29 hvcurveto
            -88 hlineto
            return
          </CharString>
          <CharString index="83">
            82 104 15 86 -47 callsubr
            return
          </CharString>
          <CharString index="84">
            -169 291 49 -89 vvcurveto
            -43 -60 -11 -48 vhcurveto
            return
          </CharString>
          <CharString index="85">
            -173 130 return
          </CharString>
          <CharString index="86">
            -15 -14 8 19 hvcurveto
            return
          </CharString>
          <CharString index="87">
            -92 -12 -12 callgsubr
            return
          </CharString>
          <CharString index="88">
            81 56 41 139 23 hvcurveto
            4 25 2 21 19 vvcurveto
            88 -50 28 -82 -81 -57 -42 -139 -22 vhcurveto
            -4 -25 -3 -22 -19 vvcurveto
            -86 51 -28 82 vhcurveto
            return
          </CharString>
          <CharString index="89">
            127 723 -79 callsubr
            return
          </CharString>
          <CharString index="90">
            70 callsubr
            132 return
          </CharString>
          <CharString index="91">
            50 281 rlineto
            -43 hlineto
            -39 -20 -56 -18 -34 -3 -10 -55 rcurveline
            82 hlineto
            -33 -185 rlineto
            -82 hlineto
            return
          </CharString>
          <CharString index="92">
            -27 -156 rmoveto
            -27 -13 12 22 35 22 20 34 26 14 -12 -22 -35 -24 -20 -32 hvcurveto
            endchar
          </CharString>
          <CharString index="93">
            -218 -159 -40 -164 -112 123 -18 76 hvcurveto
            317 334 rmoveto
            72 21 39 37 70 hhcurveto
            46 29 -22 -53 -10 -1 -12 -2 -12 hvcurveto
            -507 -226 rmoveto
            -48 -20 19 25 74 110 17 108 hvcurveto
            -3 -16 rlineto
            -66 -12 -43 -53 -92 hhcurveto
            endchar
          </CharString>
          <CharString index="94">
            rlineto
            -94 -17 -56 -49 -69 hhcurveto
            -42 -25 18 47 15 3 15 3 18 hvcurveto
            return
          </CharString>
          <CharString index="95">
            0 -22 9 -34 -65 -33 -44 -53 -28 vhcurveto
            -7 hlineto
            return
          </CharString>
          <CharString index="96">
            29 224 rmoveto
            -22 -10 10 19 34 18 19 29 22 12 -11 -21 -32 -22 -18 -27 hvcurveto
            return
          </CharString>
          <CharString index="97">
            -145 hlineto
            return
          </CharString>
          <CharString index="98">
            -5 29 39 -3 34 hhcurveto
            53 99 14 70 43 -39 19 -48 3 hvcurveto
            return
          </CharString>
          <CharString index="99">
            594 -95 callsubr
            return
          </CharString>
          <CharString index="100">
            -405 21 57 callsubr
            return
          </CharString>
          <CharString index="101">
            rlineto
            -6 -32 -5 -27 -26 vvcurveto
            -16 callgsubr
            return
          </CharString>
          <CharString index="102">
            -118 hlineto
            return
          </CharString>
          <CharString index="103">
            187 -459 rmoveto
            -74 callsubr
            return
          </CharString>
          <CharString index="104">
            rmoveto
            83 hlineto
            13 70 rlineto
            40 hlineto
            12 69 rlineto
            -40 hlineto
            26 148 rlineto
            -44 hlineto
            -15 -31 -23 -42 -19 -27 -8 -48 rcurveline
            -82 hlineto
            34 37 77 103 40 89 rrcurveto
            -94 hlineto
            -41 -91 -43 -80 -52 -63 -11 -64 rcurveline
            160 hlineto
            endchar
          </CharString>
          <CharString index="105">
            66 callgsubr
            hintmask 11011000
            11 callsubr
            hintmask 11101000
            47 34 -37 50 hhcurveto
            hintmask 11011000
            68 36 57 65 11 hvcurveto
            -70 hlineto
            hintmask 11101000
            -39 callsubr
            -47 -34 37 -51 hhcurveto
            -67 -35 -57 -65 -11 hvcurveto
            hintmask 11011000
            return
          </CharString>
          <CharString index="106">
            49 callsubr
            -569 hlineto
            -22 -125 88 callgsubr
            return
          </CharString>
          <CharString index="107">
            208 -12 rmoveto
            59 56 31 50 39 hvcurveto
            7 hlineto
            return
          </CharString>
          <CharString index="108">
            -182 rmoveto
            24 23 5 9 27 hvcurveto
            57 callgsubr
            return
          </CharString>
          <CharString index="109">
            hintmask 11010100
            17 hmoveto
            34 callsubr
            hintmask 11001100
            22 128 rlineto
            hintmask 11010100
            -12 callsubr
            hintmask 11100100
            85 -113 vlineto
            return
          </CharString>
          <CharString index="110">
            145 hlineto
            99 561 -1 callsubr
            return
          </CharString>
          <CharString index="111">
            rmoveto
            166 82 81 164 29 hvcurveto
            return
          </CharString>
          <CharString index="112">
            rmoveto
            66 49 53 63 49 -31 37 -59 -68 -47 -55 -63 -48 32 -36 58 hvcurveto
            20 145 rmoveto
            23 15 -15 -21 -29 -26 -23 -27 -23 -14 14 20 30 22 24 30 hvcurveto
            170 -574 rmoveto
            return
          </CharString>
          <CharString index="113">
            -21 401 125 -125 137 -9 -20 return
          </CharString>
          <CharString index="114">
            42 18 27 24 46 vvcurveto
            61 -46 30 -71 -65 -55 -40 -62 -10 vhcurveto
            return
          </CharString>
          <CharString index="115">
            7 callsubr
            -2 -12 rlineto
            83 hlineto
            1 4 rlineto
            29 6 18 13 17 callgsubr
            return
          </CharString>
          <CharString index="116">
            -63 callgsubr
            47 135 return
          </CharString>
          <CharString index="117">
            -21 256 121 186 123 return
          </CharString>
          <CharString index="118">
            -38 callgsubr
            hhcurveto
            return
          </CharString>
          <CharString index="119">
            89 callgsubr
            -55 hlineto
            82 156 rlineto
            -72 hlineto
            -96 -168 rlineto
            return
          </CharString>
          <CharString index="120">
            rmoveto
            97 63 41 139 24 hvcurveto
            4 22 1 19 17 vvcurveto
            93 -58 30 -97 -96 -66 -42 -139 -22 vhcurveto
            -4 -22 -2 -20 -17 vvcurveto
            -92 59 -29 97 vhcurveto
            return
          </CharString>
          <CharString index="121">
            vstem
            13 hmoveto
            36 callsubr
            return
          </CharString>
          <CharString index="122">
            261 0 168 366 152 0 -20 return
          </CharString>
          <CharString index="123">
            -12 12 callgsubr
            return
          </CharString>
          <CharString index="124">
            -735 -55 callgsubr
            return
          </CharString>
          <CharString index="125">
            41 callsubr
            686 -20 return
          </CharString>
          <CharString index="126">
            rmoveto
            94 hlineto
            75 81 rlineto
            -30 51 68 -14 81 hhcurveto
            119 96 40 69 67 hvcurveto
            79 82 39 121 129 vvcurveto
            78 -22 60 -40 44 vhcurveto
            return
          </CharString>
          <CharString index="127">
            -233 17 callsubr
            return
          </CharString>
          <CharString index="128">
            599 -34 callgsubr
            return
          </CharString>
          <CharString index="129">
            hstemhm
            -54 callsubr
            return
          </CharString>
          <CharString index="130">
            -144 71 -64 119 vhcurveto
            42 119 -34 callsubr
            return
          </CharString>
          <CharString index="131">
            -132 -101 -68 -100 hvcurveto
            132 hlineto
            3 15 rlineto
            21 4 24 26 75 hhcurveto
            61 16 -22 -30 -7 -1 -7 -1 -7 hvcurveto
            -6 -37 rlineto
            return
          </CharString>
          <CharString index="132">
            203 rlineto
            183 hlineto
            19 104 rlineto
            -183 hlineto
            36 204 rlineto
            -107 hlineto
            -36 -204 rlineto
            -182 hlineto
            -19 -104 rlineto
            182 hlineto
            return
          </CharString>
          <CharString index="133">
            -17 callgsubr
            hintmask 00000000
            return
          </CharString>
          <CharString index="134">
            -182 109 599 -20 return
          </CharString>
          <CharString index="135">
            -98 2 88 -49 127 hhcurveto
            return
          </CharString>
          <CharString index="136">
            -101 callgsubr
            hvcurveto
            return
          </CharString>
          <CharString index="137">
            55 11 11 37 33 hhcurveto
            21 7 -16 -26 -14 -2 -17 -6 -34 hvcurveto
            return
          </CharString>
          <CharString index="138">
            -19 -173 -3 callgsubr
            41 234 rlineto
            6 hlineto
            -47 33 48 -26 78 hhcurveto
            176 69 202 140 144 return
          </CharString>
          <CharString index="139">
            hstemhm
            -33 callsubr
            return
          </CharString>
          <CharString index="140">
            -350 211 118 hstem
            27 262 vstem
            27 211 rmoveto
            241 hlineto
            21 118 rlineto
            -241 hlineto
            endchar
          </CharString>
          <CharString index="141">
            -21 callgsubr
            45 254 rlineto
            96 17 45 51 91 hhcurveto
            38 hlineto
            return
          </CharString>
          <CharString index="142">
            rmoveto
            94 47 56 64 31 -12 26 -29 16 hvcurveto
            return
          </CharString>
          <CharString index="143">
            -21 callgsubr
            -18 callsubr
            return
          </CharString>
          <CharString index="144">
            21 -21 686 84 callgsubr
            return
          </CharString>
          <CharString index="145">
            rmoveto
            239 hlineto
            13 75 rlineto
            -74 hlineto
            return
          </CharString>
          <CharString index="146">
            -1 3 -47 callsubr
            return
          </CharString>
          <CharString index="147">
            -48 -48 14 44 3 1 7 2 5 hvcurveto
            -133 hlineto
            0 -7 -16 -23 vvcurveto
            -85 82 -55 147 vhcurveto
            endchar
          </CharString>
          <CharString index="148">
            -405 21 -21 return
          </CharString>
          <CharString index="149">
            rmoveto
            94 174 rlineto
            19 34 50 101 0 vvcurveto
            5 hlineto
            0 14 -101 7 -34 vhcurveto
            34 -174 rlineto
            endchar
          </CharString>
          <CharString index="150">
            52 callsubr
            hintmask 11011000
            return
          </CharString>
          <CharString index="151">
            162 200 -101 200 rlineto
            -99 hlineto
            73 -200 rlineto
            return
          </CharString>
          <CharString index="152">
            hstemhm
            412 143 return
          </CharString>
          <CharString index="153">
            -37 callsubr
            -61 return
          </CharString>
          <CharString index="154">
            112 302 112 return
          </CharString>
          <CharString index="155">
            -723 -61 callsubr
            return
          </CharString>
          <CharString index="156">
            88 callgsubr
            22 125 rlineto
            return
          </CharString>
          <CharString index="157">
            -182 57 -28 -21 97 44 return
          </CharString>
          <CharString index="158">
            112 314 112 hstemhm
            35 141 hintmask 00000000
            return
          </CharString>
          <CharString index="159">
            11 callgsubr
            45 callsubr
            return
          </CharString>
          <CharString index="160">
            -182 rmoveto
            99 41 71 70 12 hvcurveto
            return
          </CharString>
          <CharString index="161">
            -183 0 47 callsubr
            return
          </CharString>
          <CharString index="162">
            132 40 callgsubr
            return
          </CharString>
          <CharString index="163">
            hlineto
            -49 -274 rlineto
            return
          </CharString>
          <CharString index="164">
            -21 526 -20 return
          </CharString>
          <CharString index="165">
            -17 49 183 rlineto
            -108 hlineto
            -15 -183 -202 17 -20 -113 208 18 return
          </CharString>
          <CharString index="166">
            112 hstem
            433 138 vstem
            -21 hmoveto
            491 hlineto
            20 112 rlineto
            -306 hlineto
            return
          </CharString>
          <CharString index="167">
            -20 -1 -18 -3 -20 vhcurveto
            endchar
          </CharString>
          <CharString index="168">
            rmoveto
            82 hlineto
            124 489 rlineto
            -153 hlineto
            return
          </CharString>
          <CharString index="169">
            -49 -20 -22 -36 -44 vvcurveto
            -53 35 -40 89 vhcurveto
            return
          </CharString>
          <CharString index="170" raw="1">
            7fde0a0b   
          </CharString>
          <CharString index="171">
            rlineto
            -10 -58 -3 -20 -14 vvcurveto
            return
          </CharString>
          <CharString index="172">
            vvcurveto
            -58 46 -19 46 return
          </CharString>
          <CharString index="173">
            hstem
            54 146 return
          </CharString>
          <CharString index="174">
            rlineto
            172 hlineto
            176 109 92 167 120 -70 71 -186 hvcurveto
            return
          </CharString>
          <CharString index="175">
            -135 -434 rmoveto
            199 311 rlineto
            5 hlineto
            25 -311 rlineto
            endchar
          </CharString>
          <CharString index="176">
            151 -12 68 89 67 82 68 return
          </CharString>
          <CharString index="177">
            -63 callsubr
            38 return
          </CharString>
          <CharString index="178">
            123 440 123 return
          </CharString>
          <CharString index="179">
            rmoveto
            256 hlineto
            13 75 rlineto
            -150 hlineto
            return
          </CharString>
          <CharString index="180">
            103 43 73 72 12 hvcurveto
            79 451 rlineto
            return
          </CharString>
          <CharString index="181">
            -72 33 callgsubr
            return
          </CharString>
          <CharString index="182">
            54 11 16 38 52 hhcurveto
            38 13 -21 -33 -11 -1 -13 -6 -29 hvcurveto
            return
          </CharString>
          <CharString index="183">
            -37 vhcurveto
            -7 hlineto
            return
          </CharString>
          <CharString index="184">
            -385 -230 99 callgsubr
            return
          </CharString>
          <CharString index="185">
            -21 686 -20 hstem
            9 709 vstem
            return
          </CharString>
          <CharString index="186">
            86 -48 83 61 83 -63 84 return
          </CharString>
          <CharString index="187">
            -350 591 132 hstem
            return
          </CharString>
          <CharString index="188">
            -16 21 -21 686 -20 return
          </CharString>
          <CharString index="189">
            39 21 -21 686 -20 return
          </CharString>
          <CharString index="190" raw="1">
            77dbe81d 0b  
          </CharString>
          <CharString index="191">
            hlineto
            hintmask 11011000
            16 88 -64 callgsubr
            hintmask 11101000
            -16 -88 rlineto
            return
          </CharString>
          <CharString index="192">
            -17 callsubr
            hstem
            34 149 return
          </CharString>
          <CharString index="193">
            72 callgsubr
            24 133 200 110 -37 133 return
          </CharString>
          <CharString index="194">
            71 -115 vlineto
            return
          </CharString>
          <CharString index="195">
            -403 -152 -21 896 -20 hstem
            90 100 vstem
            90 return
          </CharString>
          <CharString index="196">
            123 56 callgsubr
            return
          </CharString>
          <CharString index="197">
            -30 callgsubr
            65 return
          </CharString>
          <CharString index="198">
            9 109 callsubr
            return
          </CharString>
          <CharString index="199">
            31 hvcurveto
            -144 hlineto
            return
          </CharString>
          <CharString index="200">
            85 -48 85 hstemhm
            return
          </CharString>
          <CharString index="201">
            237 -12 rmoveto
            131 123 47 145 hvcurveto
            return
          </CharString>
          <CharString index="202">
            rmoveto
            555 hlineto
            17 98 rlineto
            -556 hlineto
            endchar
          </CharString>
          <CharString index="203">
            -22 callsubr
            64 -21 return
          </CharString>
          <CharString index="204">
            132 41 callgsubr
            return
          </CharString>
          <CharString index="205">
            151 -12 68 -68 117 38 69 81 68 return
          </CharString>
          <CharString index="206">
            hstemhm
            -6 143 -73 135 516 137 return
          </CharString>
          <CharString index="207">
            hlineto
            41 196 rlineto
            -104 hlineto
            -41 -196 rlineto
            return
          </CharString>
          <CharString index="208">
            hstem
            63 591 vstem
            return
          </CharString>
          <CharString index="209">
            84 94 84 -63 85 return
          </CharString>
          <CharString index="210">
            rlineto
            -144 hlineto
            return
          </CharString>
          <CharString index="211">
            85 -129 rlineto
            return
          </CharString>
          <CharString index="212">
            22 callsubr
            hintmask 00000000
            return
          </CharString>
          <CharString index="213">
            206 -12 106 137 91 110 106 return
          </CharString>
          <CharString index="214">
            -63 callsubr
            35 135 return
          </CharString>
          <CharString index="215">
            90 callsubr
            137 return
          </CharString>
          <CharString index="216">
            hmoveto
            145 hlineto
            return
          </CharString>
        <CharString name=".notdef">
          -182 0 50 600 50 hstem
          0 50 400 50 vstem
          0 vmoveto
          500 700 -500 hlineto
          250 -305 rmoveto
          -170 255 rlineto
          340 hlineto
          -370 -555 rmoveto
          510 vlineto
          170 -255 rlineto
          230 -255 rmoveto
          -170 255 170 255 rlineto
          -370 -555 rmoveto
          170 255 170 -255 rlineto
          endchar
        </CharString>
        <CharString name="A">
          -71 callgsubr
          45 callgsubr
          -54 hmoveto
          -105 callgsubr
          endchar
        </CharString>
        <CharString name="AE">
          77 callgsubr
          hstemhm
          -62 1064 hintmask 10111000
          -62 hmoveto
          157 hlineto
          hintmask 11111000
          83 131 rlineto
          316 hlineto
          hintmask 10111000
          7 callgsubr
          hintmask 11111000
          68 callsubr
        </CharString>
        <CharString name="AEacute">
          77 callgsubr
          50 132 hstemhm
          -62 1064 hintmask 10111100
          531 736 -100 callsubr
          -695 -868 rmoveto
          157 hlineto
          hintmask 11111100
          83 131 rlineto
          316 hlineto
          hintmask 10111100
          7 callgsubr
          hintmask 11111100
          68 callsubr
        </CharString>
        <CharString name="Aacute">
          -71 callgsubr
          50 132 45 callgsubr
          378 736 -100 callsubr
          -534 -868 -102 callgsubr
        </CharString>
        <CharString name="Abreve">
          -71 callgsubr
          45 89 hstemhm
          282 92 hintmask 00000000
          hintmask 11111000
          433 731 -91 callgsubr
        </CharString>
        <CharString name="Acircumflex">
          14 callgsubr
          45 callgsubr
          260 -73 callsubr
          -442 -868 -102 callgsubr
        </CharString>
        <CharString name="Adieresis">
          -71 callgsubr
          64 118 45 callgsubr
          273 -65 callgsubr
          -557 -868 -102 callgsubr
        </CharString>
        <CharString name="Agrave">
          -71 callgsubr
          50 132 45 callgsubr
          383 736 -78 callgsubr
          -352 -865 -102 callgsubr
        </CharString>
        <CharString name="Amacron">
          -71 callgsubr
          70 88 45 callgsubr
          286 756 -58 callsubr
          -355 -844 -102 callgsubr
        </CharString>
        <CharString name="Aogonek">
          39 -182 69 134 -21 131 121 309 125 hstem
          458 112 vstem
          555 -182 rmoveto
          25 25 5 9 29 hvcurveto
          57 callgsubr
          -36 -14 17 21 29 18 28 18 18 hvcurveto
          57 hlineto
          -147 686 rlineto
          -182 hlineto
          -388 -686 rlineto
          155 hlineto
          72 131 rlineto
          315 hlineto
          27 -131 rlineto
          -29 -25 -28 -33 -47 vvcurveto
          -58 48 -19 49 vhcurveto
          -314 434 42 callsubr
        </CharString>
        <CharString name="Aring">
          -71 callgsubr
          15 57 88 57 hstemhm
          340 58 90 57 hintmask 00000000
          hintmask 11111110
          430 701 -48 callgsubr
          -489 -758 68 callgsubr
          hintmask 11101110
          -147 686 rlineto
          -182 hlineto
          -93 -434 42 callsubr
        </CharString>
        <CharString name="Aringacute">
          39 21 -21 131 121 434 -20 24 -20 108 57 26 132 hstemhm
          329 58 90 57 hintmask 11010111
          395 861 -100 callsubr
          -551 -993 68 callgsubr
          hintmask 11101111
          -147 686 rlineto
          11 18 7 22 23 vvcurveto
          49 -31 37 -59 -68 -47 -55 -63 -11 1 -11 4 -9 vhcurveto
          hintmask 11011111
          90 4 rmoveto
          -23 -14 14 20 30 22 24 30 23 15 -15 -21 -29 -26 -23 -27 hvcurveto
          -183 -438 42 callsubr
        </CharString>
        <CharString name="Atilde">
          -71 callgsubr
          60 122 45 callgsubr
          268 746 rmoveto
          69 hlineto
          -38 callgsubr
          -98 callsubr
          -322 -746 -102 callgsubr
        </CharString>
        <CharString name="B">
          39 0 123 168 121 151 123 hstemhm
          502 148 -117 155 hintmask 11110000
          9 hmoveto
          383 hlineto
          135 123 65 141 76 -45 54 -60 20 hvcurveto
          4 vlineto
          hintmask 11101000
          80 15 63 67 83 vvcurveto
          108 -87 53 -138 vhcurveto
          -333 hlineto
          98 -274 rmoveto
          26 151 rlineto
          207 hlineto
          39 33 -22 -44 -42 -27 -43 -72 hvcurveto
          -257 -289 rmoveto
          29 168 rlineto
          hintmask 11110000
          205 hlineto
          63 28 -31 -45 -61 -51 -31 -61 hvcurveto
          endchar
        </CharString>
        <CharString name="C">
          39 -63 callsubr
          hstem
          34 149 369 151 vstem
          323 -12 -94 callgsubr
        </CharString>
        <CharString name="CR">
          -683 endchar
        </CharString>
        <CharString name="Cacute">
          58 callgsubr
          377 736 -100 callsubr
          -156 -880 -94 callgsubr
        </CharString>
        <CharString name="Cacute.loclPLK">
          58 callgsubr
          368 736 -46 callsubr
          -94 -880 -94 callgsubr
        </CharString>
        <CharString name="Ccaron">
          39 107 callsubr
          hstem
          34 149 369 151 vstem
          371 733 -97 callgsubr
          34 -880 -94 callgsubr
        </CharString>
        <CharString name="Ccedilla">
          39 50 callsubr
          45 -21 584 123 hstemhm
          34 149 140 108 121 151 hintmask 10011111
          698 431 rmoveto
          3 19 2 19 17 vvcurveto
          143 -119 69 -161 -100 -83 -29 -50 -60 vhcurveto
          -101 -84 -45 -140 -139 vvcurveto
          -169 86 -81 146 -15 vhcurveto
          hintmask 10111111
          -22 -68 -25 callsubr
          hintmask 01011111
          -9 -49 rlineto
          hintmask 10111111
          -9 callsubr
          7 22 156 9 131 85 29 171 rlinecurve
          -144 hlineto
          -91 -17 -77 -52 -101 hhcurveto
          -99 -46 52 97 20 2 23 10 55 hvcurveto
          132 23 74 85 126 hhcurveto
          79 55 -37 -77 -10 -1 -10 -2 -10 hvcurveto
          endchar
        </CharString>
        <CharString name="Ccircumflex">
          39 107 callsubr
          hstem
          34 149 369 151 vstem
          259 -73 callsubr
          -64 -880 -94 callgsubr
        </CharString>
        <CharString name="Cdotaccent">
          39 -63 callsubr
          41 130 hstem
          34 149 369 151 vstem
          365 739 -95 callsubr
          -65 -881 -94 callgsubr
        </CharString>
        <CharString name="D">
          39 0 123 440 89 callsubr
          9 hmoveto
          -49 callgsubr
          endchar
        </CharString>
        <CharString name="Dcaron">
          39 65 callgsubr
          47 135 56 callgsubr
          346 733 -97 callgsubr
          -255 -868 rmoveto
          -49 callgsubr
          endchar
        </CharString>
        <CharString name="Dcroat">
          -50 callsubr
        </CharString>
        <CharString name="E">
          -63 callgsubr
          31 callgsubr
          9 hmoveto
          -102 callsubr
          endchar
        </CharString>
        <CharString name="Eacute">
          -63 callgsubr
          50 132 31 callgsubr
          355 736 -100 callsubr
          -448 -35 callsubr
        </CharString>
        <CharString name="Ebreve">
          -63 callgsubr
          45 89 hstemhm
          259 92 hintmask 00000000
          hintmask 11111000
          410 -68 callsubr
          -401 -731 -91 callsubr
        </CharString>
        <CharString name="Ecaron">
          9 callsubr
          31 callgsubr
          349 733 -97 callgsubr
          -258 -35 callsubr
        </CharString>
        <CharString name="Ecircumflex">
          9 callsubr
          31 callgsubr
          237 733 -84 callgsubr
          endchar
        </CharString>
        <CharString name="Edieresis">
          -63 callgsubr
          64 118 31 callgsubr
          250 -65 callgsubr
          -471 -35 callsubr
        </CharString>
        <CharString name="Edotaccent">
          -63 callgsubr
          53 130 31 callgsubr
          343 739 -95 callsubr
          -357 -869 -91 callsubr
        </CharString>
        <CharString name="Egrave">
          -63 callgsubr
          50 132 31 callgsubr
          360 736 -78 callgsubr
          -266 -865 -91 callsubr
        </CharString>
        <CharString name="Emacron">
          -63 callgsubr
          70 88 31 callgsubr
          263 756 -58 callsubr
          -269 -844 -91 callsubr
        </CharString>
        <CharString name="Eng">
          39 33 callgsubr
          91 78 callsubr
          438 53 callsubr
          128 727 rlineto
          -141 hlineto
          -69 -394 rlineto
          -2 -11 -6 -47 0 vvcurveto
          -5 hlineto
          0 -19 46 -9 18 vhcurveto
          -196 388 rlineto
          -141 hlineto
          -121 -686 rlineto
          42 callgsubr
          -5 -27 60 callgsubr
        </CharString>
        <CharString name="Eogonek">
          -16 -182 69 113 -66 callsubr
          hstem
          357 112 vstem
          450 1 callsubr
          -26 -15 14 17 31 46 35 39 16 hvcurveto
          22 123 rlineto
          -400 -11 callgsubr
          350 -72 callsubr
          -350 hlineto
          26 151 rlineto
          394 -72 callsubr
          -539 hlineto
          -121 -686 rlineto
          435 hlineto
          -48 -25 -39 -37 -52 vvcurveto
          -51 49 -17 44 vhcurveto
          endchar
        </CharString>
        <CharString name="Eth">
          -50 callsubr
        </CharString>
        <CharString name="Euro">
          -12 112 133 81 70 81 121 112 0 -20 hstemhm
          -10 591 hintmask 11110100
          335 -12 rmoveto
          76 51 18 0 hvcurveto
          19 110 rlineto
          0 -51 -16 -55 -50 -104 19 114 -18 vhcurveto
          226 hlineto
          14 81 rlineto
          -240 hlineto
          2 25 3 23 6 22 rrcurveto
          242 hlineto
          14 81 rlineto
          -224 hlineto
          80 47 79 41 100 hhcurveto
          48 42 -16 0 hvcurveto
          hintmask 11101100
          19 110 rlineto
          hintmask 11110100
          0 -47 18 -82 -126 -164 -53 -180 -69 vhcurveto
          -63 hlineto
          -14 -81 rlineto
          54 hlineto
          -4 -22 -3 -24 -2 -24 rrcurveto
          -58 hlineto
          -13 -81 rlineto
          71 hlineto
          -184 15 147 -61 112 hhcurveto
          endchar
        </CharString>
        <CharString name="F">
          -72 21 -21 271 123 169 123 hstem
          9 618 81 callgsubr
          48 271 rlineto
          315 hlineto
          21 123 rlineto
          -315 hlineto
          30 169 rlineto
          352 -72 callsubr
          -497 hlineto
          endchar
        </CharString>
        <CharString name="G">
          -25 callgsubr
          22 callgsubr
          hintmask 10111100
          738 452 rmoveto
          3 15 1 14 14 vvcurveto
          138 -135 65 -164 -112 -92 -33 -59 -67 vhcurveto
          -93 -81 -45 -129 -138 vvcurveto
          -189 107 -81 182 101 67 33 55 67 vhcurveto
          hintmask 01111100
          -76 100 vlineto
          66 373 rlineto
          -353 hlineto
          -21 -119 rlineto
          207 hlineto
          hintmask 10111100
          -88 -16 -96 -55 -110 hhcurveto
          -102 -50 49 100 20 3 23 9 55 hvcurveto
          138 23 84 79 144 hhcurveto
          77 66 -38 -67 -6 0 -6 -1 -6 hvcurveto
          endchar
        </CharString>
        <CharString name="G_tilde.loclGUA">
          -25 callgsubr
          48 122 22 callgsubr
          hintmask 10111110
          400 783 rmoveto
          -98 callsubr
          69 hlineto
          11 callsubr
          338 -331 -92 callsubr
        </CharString>
        <CharString name="Gbreve">
          -25 callgsubr
          33 89 hstemhm
          34 149 121 92 193 153 hintmask 10111111
          455 -68 callsubr
          283 -279 rmoveto
          3 15 1 14 14 vvcurveto
          138 -135 65 -164 -112 -92 -33 -59 -67 vhcurveto
          -93 -81 -45 -129 -138 vvcurveto
          -189 107 -81 182 101 67 33 55 67 vhcurveto
          hintmask 01111111
          -76 100 vlineto
          66 373 rlineto
          -353 hlineto
          -21 -119 rlineto
          207 hlineto
          hintmask 10111111
          -88 -16 -96 -55 -110 hhcurveto
          -102 -50 49 100 20 3 23 9 55 hvcurveto
          138 23 84 79 144 hhcurveto
          77 66 -38 -67 -6 0 -6 -1 -6 hvcurveto
          endchar
        </CharString>
        <CharString name="Gcaron">
          -25 callgsubr
          35 135 22 callgsubr
          hintmask 10111110
          516 733 rmoveto
          128 135 rlineto
          -5 callsubr
          -62 -69 -45 69 rlineto
          -107 hlineto
          82 -135 rlineto
          344 -281 -92 callsubr
        </CharString>
        <CharString name="Gcircumflex">
          -25 callgsubr
          35 135 22 callgsubr
          hintmask 10111110
          463 802 rmoveto
          -100 callgsubr
          -128 -135 rlineto
          -9 callgsubr
          337 -281 -92 callsubr
        </CharString>
        <CharString name="Gcommaaccent">
          95 -138 98 28 123 -90 -21 254 119 202 123 22 callgsubr
          hintmask 01011110
          738 452 rmoveto
          3 15 1 14 14 vvcurveto
          138 -135 65 -164 -112 -92 -33 -59 -67 vhcurveto
          -93 -81 -45 -129 -138 vvcurveto
          -189 107 -81 182 101 67 33 55 67 vhcurveto
          hintmask 00111110
          -76 100 vlineto
          66 373 rlineto
          -353 hlineto
          -21 -119 rlineto
          207 hlineto
          hintmask 01011110
          -88 -16 -96 -55 -110 hhcurveto
          -102 -50 49 100 20 3 23 9 55 hvcurveto
          138 23 84 79 144 hhcurveto
          77 66 -38 -67 -6 0 -6 -1 -6 hvcurveto
          hintmask 11011110
          -339 -590 rmoveto
          52 hlineto
          -66 -92 rlineto
          73 hlineto
          -24 callsubr
          endchar
        </CharString>
        <CharString name="Gdotaccent">
          -25 callgsubr
          41 130 22 callgsubr
          hintmask 10111110
          546 869 rmoveto
          -37 callsubr
          -23 -130 rlineto
          135 hlineto
          215 -287 -92 callsubr
        </CharString>
        <CharString name="H">
          39 21 -4 callgsubr
          endchar
        </CharString>
        <CharString name="Hbar">
          39 21 -21 289 125 93 91 -91 179 hstemhm
          9 753 hintmask 11011000
          91 callsubr
          51 289 rlineto
          298 hlineto
          -51 -289 rlineto
          145 hlineto
          89 507 rlineto
          60 hlineto
          hintmask 11101000
          16 91 rlineto
          -60 84 callsubr
          -298 84 callsubr
          -60 hlineto
          hintmask 11011000
          -16 -91 rlineto
          60 hlineto
          129 -93 rmoveto
          16 93 rlineto
          298 hlineto
          -16 -93 rlineto
          endchar
        </CharString>
        <CharString name="Hcircumflex">
          39 21 -21 289 125 272 -20 67 135 hstem
          9 709 vstem
          259 -73 callsubr
          -378 -868 rmoveto
          8 callgsubr
          endchar
        </CharString>
        <CharString name="I">
          18 callsubr
          hstem
          9 266 vstem
          9 hmoveto
          -48 callsubr
          endchar
        </CharString>
        <CharString name="IJ">
          151 90 callgsubr
          hstemhm
          273 146 hintmask 10110000
          9 hmoveto
          hintmask 01110000
          -48 callsubr
          hintmask 10110000
          367 -698 -80 callsubr
        </CharString>
        <CharString name="Iacute">
          -405 37 callsubr
          9 388 vstem
          156 736 -100 callsubr
          -249 -868 -53 callgsubr
        </CharString>
        <CharString name="Iacute_J.loclNLD">
          151 90 callgsubr
          70 132 hstemhm
          273 146 hintmask 10111000
          156 736 -100 callsubr
          456 -132 -100 callsubr
          hintmask 01111000
          -807 -868 rmoveto
          -48 callsubr
          hintmask 10111000
          367 -698 -80 callsubr
        </CharString>
        <CharString name="Ibreve">
          18 callsubr
          65 89 hstemhm
          60 92 hintmask 00000000
          hintmask 11110000
          211 -68 callsubr
          -202 -731 -53 callgsubr
        </CharString>
        <CharString name="Icircumflex">
          18 callsubr
          67 135 hstem
          9 361 vstem
          38 -73 callsubr
          -157 -868 -53 callgsubr
        </CharString>
        <CharString name="Idieresis">
          18 callsubr
          84 118 hstem
          9 391 vstem
          51 -65 callgsubr
          -272 -868 -53 callgsubr
        </CharString>
        <CharString name="Idotaccent">
          18 callsubr
          73 130 hstem
          9 293 vstem
          144 739 -95 callsubr
          -158 -869 -53 callgsubr
        </CharString>
        <CharString name="Igrave">
          -405 37 callsubr
          9 266 vstem
          161 736 -78 callgsubr
          -67 -865 -53 callgsubr
        </CharString>
        <CharString name="Imacron">
          18 callsubr
          90 88 hstem
          9 375 vstem
          64 756 -58 callsubr
          -70 -844 -53 callgsubr
        </CharString>
        <CharString name="Iogonek">
          -405 -190 69 142 -21 686 -20 hstem
          -25 112 vstem
          132 hmoveto
          22 -41 callsubr
          -121 -686 rlineto
          33 hlineto
          -32 -26 -35 -35 -52 -27 callgsubr
          endchar
        </CharString>
        <CharString name="Itilde">
          18 callsubr
          80 122 hstem
          9 393 vstem
          46 746 rmoveto
          69 hlineto
          -38 callgsubr
          -98 callsubr
          -37 -746 -53 callgsubr
        </CharString>
        <CharString name="J">
          -12 122 576 -20 hstem
          -5 146 vstem
          219 -12 -80 callsubr
        </CharString>
        <CharString name="Jcircumflex">
          -12 122 576 -20 67 135 hstem
          -5 146 vstem
          318 -73 callsubr
          -227 -880 -80 callsubr
        </CharString>
        <CharString name="K">
          39 21 -2 callgsubr
          endchar
        </CharString>
        <CharString name="Kcommaaccent">
          39 -138 98 61 -2 callgsubr
          77 -916 rmoveto
          73 hlineto
          -62 callgsubr
        </CharString>
        <CharString name="L">
          -72 0 126 560 -20 hstem
          9 537 vstem
          -19 callgsubr
          endchar
        </CharString>
        <CharString name="Lacute">
          -72 0 126 560 84 callgsubr
          9 537 vstem
          156 736 -100 callsubr
          -249 -868 rmoveto
          -13 callgsubr
          endchar
        </CharString>
        <CharString name="Lcaron">
          -72 0 126 433 127 hstem
          9 537 vstem
          -19 callgsubr
          215 -244 rmoveto
          72 hlineto
          89 129 16 callgsubr
          53 hlineto
          endchar
        </CharString>
        <CharString name="Lcommaaccent">
          -72 -138 98 40 126 560 -20 hstem
          9 537 vstem
          -19 callgsubr
          29 -916 rmoveto
          73 hlineto
          -62 callgsubr
        </CharString>
        <CharString name="Ldot">
          -72 0 126 263 137 160 -20 hstem
          9 537 vstem
          -19 callgsubr
          208 -297 rmoveto
          -8 callgsubr
          endchar
        </CharString>
        <CharString name="Lslash">
          -72 0 126 411 -20 169 -20 hstem
          -21 567 vstem
          9 hmoveto
          515 hlineto
          22 126 rlineto
          -370 hlineto
          38 216 158 93 18 102 -158 -93 43 242 -64 callgsubr
          -60 -338 -73 -44 -18 -102 73 44 rlineto
          endchar
        </CharString>
        <CharString name="M">
          150 0 153 -132 -21 547 139 hstemhm
          9 820 hintmask 01110000
          9 hmoveto
          140 hlineto
          77 437 rlineto
          5 27 8 83 0 vvcurveto
          5 hlineto
          6 -83 32 -464 rlineto
          143 hlineto
          199 464 36 83 rlineto
          5 hlineto
          0 -19 -79 -6 -31 vhcurveto
          -77 -437 rlineto
          145 hlineto
          121 686 rlineto
          -226 hlineto
          -163 -378 rlineto
          hintmask 10110000
          -17 -40 -38 -115 0 vvcurveto
          -5 hlineto
          0 -1 110 -4 45 vhcurveto
          -29 378 rlineto
          -216 hlineto
          endchar
        </CharString>
        <CharString name="N">
          39 21 78 callsubr
          9 hmoveto
          141 hlineto
          69 394 -96 callgsubr
          endchar
        </CharString>
        <CharString name="NULL">
          -683 endchar
        </CharString>
        <CharString name="Nacute">
          39 37 callsubr
          9 709 vstem
          392 736 -100 callsubr
          -485 -868 rmoveto
          141 hlineto
          69 394 -96 callgsubr
          endchar
        </CharString>
        <CharString name="Nacute.loclPLK">
          39 37 callsubr
          9 709 vstem
          383 736 -46 callsubr
          -423 -868 rmoveto
          141 hlineto
          69 394 -96 callgsubr
          endchar
        </CharString>
        <CharString name="Ncaron">
          82 callsubr
          67 135 hstem
          9 709 vstem
          386 733 -97 callgsubr
          -295 -868 rmoveto
          141 hlineto
          69 394 -96 callgsubr
          endchar
        </CharString>
        <CharString name="Ncommaaccent">
          39 -138 98 61 78 callsubr
          9 hmoveto
          141 hlineto
          69 394 -96 callgsubr
          77 -916 rmoveto
          73 hlineto
          -62 callgsubr
        </CharString>
        <CharString name="Ntilde">
          82 callsubr
          80 122 hstem
          9 709 vstem
          282 746 rmoveto
          69 hlineto
          -38 callgsubr
          -98 callsubr
          -273 -746 rmoveto
          141 hlineto
          69 394 -96 callgsubr
          endchar
        </CharString>
        <CharString name="O">
          -47 callgsubr
          hstem
          -54 callsubr
          vstem
          347 -12 -107 callsubr
          endchar
        </CharString>
        <CharString name="OE">
          317 -12 123 -111 -66 callsubr
          -111 123 hstemhm
          31 150 hintmask 00000000
          hintmask 10110100
          260 -12 rmoveto
          65 60 21 44 53 hvcurveto
          hintmask 01110100
          -9 -53 rlineto
          455 -72 callsubr
          -310 -11 callgsubr
          260 -72 callsubr
          -260 hlineto
          26 151 rlineto
          304 -72 callsubr
          -449 hlineto
          hintmask 01101100
          -10 -54 rlineto
          45 -42 -59 21 -79 hhcurveto
          -161 -119 -123 -232 -38 hvcurveto
          -7 -40 -4 -37 -34 vvcurveto
          hintmask 10110100
          -160 83 -84 146 vhcurveto
          37 123 rmoveto
          -80 -36 45 92 28 4 31 6 36 hvcurveto
          hintmask 01101100
          156 28 58 76 111 hhcurveto
          69 42 -40 -101 -26 -3 -30 -6 -35 hvcurveto
          hintmask 10110100
          -170 -31 -69 -62 -93 hhcurveto
          endchar
        </CharString>
        <CharString name="Oacute">
          -27 callsubr
          380 736 -100 callsubr
          -135 -880 -107 callsubr
          endchar
        </CharString>
        <CharString name="Oacute.loclPLK">
          -27 callsubr
          371 736 -46 callsubr
          -73 -880 -107 callsubr
          endchar
        </CharString>
        <CharString name="Obreve">
          -47 callgsubr
          33 89 hstem
          34 149 101 92 221 150 vstem
          435 -68 callsubr
          -88 -743 -107 callsubr
          endchar
        </CharString>
        <CharString name="Ocircumflex">
          36 callgsubr
          hstem
          -54 callsubr
          vstem
          262 -73 callsubr
          -43 -880 -107 callsubr
          endchar
        </CharString>
        <CharString name="Odieresis">
          -47 callgsubr
          52 118 hstem
          -54 callsubr
          vstem
          275 -65 callgsubr
          -158 -880 -107 callsubr
          endchar
        </CharString>
        <CharString name="Ograve">
          -27 callsubr
          385 736 -78 callgsubr
          47 -877 -107 callsubr
          endchar
        </CharString>
        <CharString name="Ohorn">
          -47 callgsubr
          -7 137 105 callsubr
          hintmask 10111000
          739 828 -51 callsubr
          hintmask 11011000
          -83 callgsubr
          hintmask 10111000
          -67 callsubr
          hintmask 11011000
          136 23 83 81 133 hhcurveto
          110 54 -58 -99 hvcurveto
          hintmask 10111000
          -37 callgsubr
          vhcurveto
          endchar
        </CharString>
        <CharString name="Ohungarumlaut">
          -27 callsubr
          292 736 -51 callgsubr
          -225 -880 -107 callsubr
          endchar
        </CharString>
        <CharString name="Omacron">
          -47 callgsubr
          58 88 hstem
          -54 callsubr
          vstem
          288 756 -58 callsubr
          44 -856 -107 callsubr
          endchar
        </CharString>
        <CharString name="Oslash">
          -47 callgsubr
          37 -20 hstem
          -54 callsubr
          vstem
          -22 -49 19 callsubr
          -46 callgsubr
        </CharString>
        <CharString name="Oslashacute">
          -47 callgsubr
          37 -20 21 132 105 callsubr
          hintmask 11011100
          420 736 -100 callsubr
          -544 -917 19 callsubr
          hintmask 11101100
          -46 callgsubr
        </CharString>
        <CharString name="Otilde">
          -47 callgsubr
          48 122 hstem
          -54 callsubr
          vstem
          270 746 rmoveto
          69 hlineto
          -38 callgsubr
          -98 callsubr
          77 -758 -107 callsubr
          endchar
        </CharString>
        <CharString name="P">
          -16 21 -21 236 123 204 123 hstem
          504 149 81 callgsubr
          42 236 67 callsubr
          -267 hlineto
          87 -327 61 callgsubr
        </CharString>
        <CharString name="Q">
          -47 callgsubr
          hstem
          -54 callsubr
          vstem
          461 -130 rmoveto
          175 hlineto
          -129 148 rlineto
          157 65 83 163 183 vvcurveto
          182 -117 87 -198 -108 -89 -34 -60 -65 vhcurveto
          -91 -82 -45 -127 -138 vvcurveto
          -59 callsubr
          vhcurveto
          11 1 rlineto
          -19 122 rmoveto
          -104 -52 57 100 18 2 20 9 52 hvcurveto
          136 24 85 81 137 hhcurveto
          105 52 -58 -99 -37 callgsubr
          hvcurveto
          -136 -24 -85 -81 -138 hhcurveto
          endchar
        </CharString>
        <CharString name="R">
          39 21 -29 callsubr
          endchar
        </CharString>
        <CharString name="Racute">
          37 callgsubr
          50 132 96 callgsubr
          346 736 -100 callsubr
          -439 -868 rmoveto
          -87 callsubr
          endchar
        </CharString>
        <CharString name="Rcaron">
          37 callgsubr
          47 135 96 callgsubr
          340 733 -97 callgsubr
          -249 -868 rmoveto
          -87 callsubr
          endchar
        </CharString>
        <CharString name="Rcommaaccent">
          39 -138 98 61 -29 callsubr
          -219 -607 rmoveto
          73 hlineto
          -62 callgsubr
        </CharString>
        <CharString name="S">
          -16 -63 callsubr
          -32 callgsubr
          hintmask 00000000
          hintmask 11101000
          94 callgsubr
          hintmask 11011000
          212 -368 -44 109 vvcurveto
          45 52 28 90 vhcurveto
          hintmask 11010100
          72 43 -26 -43 -4 0 -5 -3 -13 hvcurveto
          144 hlineto
          4 25 1 13 12 vvcurveto
          114 -115 50 -152 -157 -128 -71 -147 vhcurveto
          hintmask 11011000
          -213 365 53 -125 vvcurveto
          -47 -40 -37 -113 vhcurveto
          hintmask 11101000
          -86 -47 31 49 10 4 15 1 7 hvcurveto
          -147 hlineto
          -4 -15 -4 -23 -18 vvcurveto
          -119 129 -60 165 vhcurveto
          endchar
        </CharString>
        <CharString name="Sacute">
          -16 -17 callsubr
          -32 callgsubr
          hintmask 11101100
          365 736 -100 callsubr
          hintmask 11110100
          -157 -880 -93 callgsubr
          endchar
        </CharString>
        <CharString name="Sacute.loclPLK">
          -16 -17 callsubr
          -32 callgsubr
          hintmask 11101100
          356 736 -46 callsubr
          hintmask 11110100
          -95 -880 -93 callgsubr
          endchar
        </CharString>
        <CharString name="Scaron">
          -16 107 callsubr
          -32 callgsubr
          hintmask 11101100
          359 733 -97 callgsubr
          hintmask 11110100
          33 -880 -93 callgsubr
          endchar
        </CharString>
        <CharString name="Scedilla">
          -16 50 callsubr
          23 121 464 123 hstemhm
          16 150 -79 149 83 108 25 152 -111 146 hintmask 1001101010000000
          275 -182 rmoveto
          hintmask 1011101110000000
          53 99 14 70 43 -39 19 -48 3 hvcurveto
          7 23 rlineto
          hintmask 1001101010000000
          131 10 126 65 160 212 -368 -44 109 vvcurveto
          45 52 28 90 vhcurveto
          hintmask 1001101001000000
          72 43 -26 -43 -4 0 -5 -3 -13 hvcurveto
          144 hlineto
          4 25 1 13 12 vvcurveto
          114 -115 50 -152 -157 -128 -71 -147 vhcurveto
          hintmask 1001101010000000
          -213 365 53 -125 vvcurveto
          -47 -40 -37 -113 vhcurveto
          hintmask 1001110010000000
          -86 -47 31 49 10 4 15 1 7 hvcurveto
          -147 hlineto
          -4 -15 -4 -23 -18 vvcurveto
          -107 104 -60 142 -10 vhcurveto
          hintmask 1011101110000000
          -22 -67 -25 callsubr
          hintmask 0101101010000000
          -9 -49 rlineto
          hintmask 1001101010000000
          -5 29 39 -3 34 hhcurveto
          endchar
        </CharString>
        <CharString name="Scircumflex">
          -16 107 callsubr
          -32 callgsubr
          hintmask 11101100
          247 -73 callsubr
          hintmask 11110100
          -65 -880 -93 callgsubr
          endchar
        </CharString>
        <CharString name="Scommaaccent">
          -16 -138 98 28 -69 callsubr
          -32 callgsubr
          hintmask 00000000
          hintmask 01110100
          94 callgsubr
          hintmask 01101100
          212 -368 -44 109 vvcurveto
          45 52 28 90 vhcurveto
          hintmask 01101010
          72 43 -26 -43 -4 0 -5 -3 -13 hvcurveto
          144 hlineto
          4 25 1 13 12 vvcurveto
          114 -115 50 -152 -157 -128 -71 -147 vhcurveto
          hintmask 01101100
          -213 365 53 -125 vvcurveto
          -47 -40 -37 -113 vhcurveto
          hintmask 01110100
          -86 -47 31 49 10 4 15 1 7 hvcurveto
          -147 hlineto
          -4 -15 -4 -23 -18 vvcurveto
          -119 129 -60 165 vhcurveto
          -130 -218 rmoveto
          73 hlineto
          hintmask 11101100
          -62 callgsubr
        </CharString>
        <CharString name="T">
          -72 21 -23 callgsubr
          endchar
        </CharString>
        <CharString name="Tbar">
          -72 21 -21 352 91 118 125 101 callsubr
          176 109 callsubr
          62 352 rlineto
          89 hlineto
          16 91 rlineto
          -89 hlineto
          21 118 -1 callsubr
          -21 -118 rlineto
          -89 hlineto
          -16 -91 rlineto
          89 hlineto
          endchar
        </CharString>
        <CharString name="Tcaron">
          -72 21 -21 561 125 47 135 101 callsubr
          311 733 -97 callgsubr
          -53 -868 rmoveto
          3 callsubr
          endchar
        </CharString>
        <CharString name="Thorn">
          -16 21 -21 129 123 204 123 107 -20 hstem
          485 149 81 callgsubr
          23 129 67 callsubr
          -122 hlineto
          19 107 -64 callgsubr
          68 -434 61 callgsubr
        </CharString>
        <CharString name="U">
          -30 callgsubr
          46 callgsubr
          324 -12 -105 callsubr
          endchar
        </CharString>
        <CharString name="Uacute">
          10 callgsubr
          392 736 -100 callsubr
          -170 -880 -105 callsubr
          endchar
        </CharString>
        <CharString name="Ubreve">
          90 callsubr
          89 66 callsubr
          96 92 vstem
          447 -68 callsubr
          -123 -743 -105 callsubr
          endchar
        </CharString>
        <CharString name="Ucircumflex">
          -30 callgsubr
          67 135 46 callgsubr
          274 -73 callsubr
          -78 -880 -105 callsubr
          endchar
        </CharString>
        <CharString name="Udieresis">
          -30 callgsubr
          84 118 46 callgsubr
          287 -65 callgsubr
          -193 -880 -105 callsubr
          endchar
        </CharString>
        <CharString name="Ugrave">
          10 callgsubr
          397 736 -78 callgsubr
          12 -877 -105 callsubr
          endchar
        </CharString>
        <CharString name="Uhorn">
          108 callsubr
          46 callgsubr
          -87 callgsubr
          endchar
        </CharString>
        <CharString name="Uhungarumlaut">
          10 callgsubr
          304 736 -51 callgsubr
          -260 -880 -105 callsubr
          endchar
        </CharString>
        <CharString name="Umacron">
          -30 callgsubr
          90 88 46 callgsubr
          300 756 -58 callsubr
          9 -856 -105 callsubr
          endchar
        </CharString>
        <CharString name="Uogonek">
          39 -182 69 101 -10 callgsubr
          66 callsubr
          77 112 vstem
          369 1 callsubr
          -29 -11 17 21 28 18 28 17 18 hvcurveto
          123 28 74 86 25 142 76 431 rcurveline
          -145 -78 callsubr
          97 -70 170 -1 vhcurveto
          -24 -23 -20 -30 -40 65 callsubr
          vhcurveto
          endchar
        </CharString>
        <CharString name="Uring">
          -30 callgsubr
          35 57 88 57 hstemhm
          54 146 154 58 90 57 hintmask 00000000
          hintmask 11111110
          444 701 -48 callgsubr
          -125 -770 rmoveto
          184 107 90 177 31 hvcurveto
          hintmask 11011110
          76 431 rlineto
          -145 -103 callgsubr
          hintmask 11111110
          -141 98 -71 172 vhcurveto
          endchar
        </CharString>
        <CharString name="Utilde">
          -30 callgsubr
          80 122 46 callgsubr
          282 746 rmoveto
          69 hlineto
          -38 callgsubr
          -98 callsubr
          42 -758 -105 callsubr
          endchar
        </CharString>
        <CharString name="V">
          -16 0 168 -147 -21 686 -20 hstemhm
          71 658 hintmask 01110000
          198 hmoveto
          162 hlineto
          369 686 rlineto
          -156 hlineto
          -194 -376 rlineto
          hintmask 10110000
          -18 -34 -52 -108 0 vvcurveto
          -5 hlineto
          0 -16 108 -6 34 vhcurveto
          -63 376 rlineto
          -148 hlineto
          endchar
        </CharString>
        <CharString name="W">
          15 callsubr
          hstemhm
          66 938 hintmask 10110000
          119 hmoveto
          163 hlineto
          hintmask 11010000
          -88 callsubr
        </CharString>
        <CharString name="Wacute">
          15 callsubr
          70 132 hstemhm
          66 938 hintmask 10111000
          503 736 -100 callsubr
          -486 -868 rmoveto
          163 hlineto
          hintmask 11011000
          -88 callsubr
        </CharString>
        <CharString name="Wcircumflex">
          15 callsubr
          67 135 hstemhm
          66 938 hintmask 10111000
          385 -73 callsubr
          -394 -868 rmoveto
          163 hlineto
          hintmask 11011000
          -88 callsubr
        </CharString>
        <CharString name="Wdieresis">
          15 callsubr
          84 118 hstemhm
          66 938 hintmask 10111000
          398 -65 callgsubr
          -509 -868 rmoveto
          163 hlineto
          hintmask 11011000
          -88 callsubr
        </CharString>
        <CharString name="Wgrave">
          15 callsubr
          70 132 hstemhm
          66 938 hintmask 10111000
          508 736 -78 callgsubr
          -304 -865 rmoveto
          163 hlineto
          hintmask 11011000
          -88 callsubr
        </CharString>
        <CharString name="X">
          81 callsubr
          hstem
          -60 764 vstem
          -60 hmoveto
          178 hlineto
          200 239 rlineto
          5 hlineto
          120 -239 rlineto
          162 hlineto
          -186 354 285 332 rlineto
          -177 hlineto
          -174 -208 rlineto
          -5 hlineto
          -103 208 rlineto
          -163 hlineto
          170 -321 rlineto
          endchar
        </CharString>
        <CharString name="Y">
          81 callsubr
          hstem
          62 667 vstem
          203 hmoveto
          -81 callsubr
          endchar
        </CharString>
        <CharString name="Y.loclGUA">
          4 callgsubr
          39 callgsubr
          hintmask 00000000
          hintmask 11110000
          280 -12 rmoveto
          163 113 90 176 29 hvcurveto
          77 432 -64 callgsubr
          -31 -174 rlineto
          hintmask 11101000
          -119 -21 -59 -62 -87 hhcurveto
          -58 -33 28 54 9 1 10 2 10 hvcurveto
          43 244 -64 callgsubr
          -43 -241 rlineto
          -4 -24 -2 -22 -21 vvcurveto
          -108 57 -62 122 74 61 23 55 45 vhcurveto
          7 hlineto
          -10 -54 rlineto
          -80 -14 -57 -41 -83 hhcurveto
          hintmask 11110000
          -41 callgsubr
        </CharString>
        <CharString name="Yacute">
          -16 37 callsubr
          62 667 vstem
          365 736 -100 callsubr
          -264 -868 rmoveto
          -81 callsubr
          endchar
        </CharString>
        <CharString name="Yacute.loclGUA">
          4 callgsubr
          70 132 39 callgsubr
          hintmask 11110100
          365 736 -100 callsubr
          hintmask 11111000
          -187 -880 -93 callsubr
          hintmask 11111000
          -41 callgsubr
        </CharString>
        <CharString name="Ycircumflex">
          81 callsubr
          67 135 hstem
          62 667 vstem
          247 -73 callsubr
          -172 -868 rmoveto
          -81 callsubr
          endchar
        </CharString>
        <CharString name="Ycircumflex.loclGUA">
          4 callgsubr
          67 135 39 callgsubr
          hintmask 11110100
          247 -73 callsubr
          hintmask 11111000
          -95 -880 -93 callsubr
          hintmask 11111000
          -41 callgsubr
        </CharString>
        <CharString name="Ydieresis">
          81 callsubr
          84 118 hstem
          62 667 vstem
          260 -65 callgsubr
          -287 -868 rmoveto
          -81 callsubr
          endchar
        </CharString>
        <CharString name="Ydieresis.loclGUA">
          4 callgsubr
          84 118 39 callgsubr
          hintmask 10110100
          260 -65 callgsubr
          hintmask 10111000
          -210 -880 -93 callsubr
          hintmask 10111000
          -41 callgsubr
        </CharString>
        <CharString name="Ygrave">
          -16 37 callsubr
          62 667 vstem
          370 736 -78 callgsubr
          -82 -865 rmoveto
          -81 callsubr
          endchar
        </CharString>
        <CharString name="Ygrave.loclGUA">
          4 callgsubr
          70 132 39 callgsubr
          hintmask 11110100
          370 736 -78 callgsubr
          hintmask 11111000
          -5 -877 -93 callsubr
          hintmask 11111000
          -41 callgsubr
        </CharString>
        <CharString name="Z">
          69 callgsubr
          hstem
          -38 680 vstem
          -38 hmoveto
          -77 callgsubr
          endchar
        </CharString>
        <CharString name="Zacute">
          69 callgsubr
          50 132 hstem
          -38 680 vstem
          307 736 -100 callsubr
          -447 -868 rmoveto
          -77 callgsubr
          endchar
        </CharString>
        <CharString name="Zacute.loclPLK">
          69 callgsubr
          50 132 hstem
          -38 680 vstem
          298 736 -46 callsubr
          -385 -868 rmoveto
          -77 callgsubr
          endchar
        </CharString>
        <CharString name="Zcaron">
          69 callgsubr
          47 135 hstem
          -38 680 vstem
          301 733 -97 callgsubr
          -257 -868 rmoveto
          -77 callgsubr
          endchar
        </CharString>
        <CharString name="Zdotaccent">
          69 callgsubr
          53 130 hstem
          -38 680 vstem
          295 739 -95 callsubr
          -356 -869 rmoveto
          -77 callgsubr
          endchar
        </CharString>
        <CharString name="a">
          -72 callgsubr
          40 callgsubr
          hintmask 00000000
          hintmask 10011000
          484 127 rmoveto
          -74 callsubr
          hintmask 01101000
          -104 callgsubr
          hintmask 10101000
          -30 callsubr
          hintmask 10011000
          -21 callsubr
          hintmask 01101000
          -99 callgsubr
          endchar
        </CharString>
        <CharString name="aacute">
          -72 callgsubr
          85 55 callsubr
          hintmask 01101100
          483 720 -24 callgsubr
          hintmask 10011100
          132 -464 rmoveto
          -74 callsubr
          hintmask 01101100
          -104 callgsubr
          hintmask 10101100
          -30 callsubr
          hintmask 10011100
          -21 callsubr
          hintmask 01101100
          -99 callgsubr
          endchar
        </CharString>
        <CharString name="abreve">
          -20 callsubr
          97 callgsubr
          hintmask 00000000
          hintmask 01100101
          297 586 -84 callsubr
          hintmask 01101001
          -38 callsubr
          hintmask 01100101
          -90 callsubr
          hintmask 10010110
          -4 callsubr
          hintmask 01100110
          -104 callgsubr
          hintmask 10100110
          -30 callsubr
          hintmask 10010110
          -21 callsubr
          hintmask 01100110
          -99 callgsubr
          endchar
        </CharString>
        <CharString name="acircumflex">
          -72 callgsubr
          82 135 -66 66 40 callgsubr
          hintmask 00000000
          hintmask 01100110
          305 657 rmoveto
          hintmask 10011010
          -45 callsubr
          hintmask 01101010
          -104 callgsubr
          hintmask 10101010
          -30 callsubr
          hintmask 10011010
          -21 callsubr
          hintmask 01101010
          -99 callgsubr
          endchar
        </CharString>
        <CharString name="acute">
          80 callsubr
          58 241 vstem
          58 591 -100 callsubr
          endchar
        </CharString>
        <CharString name="acute.loclPLK">
          80 callsubr
          149 173 vstem
          149 591 -46 callsubr
          endchar
        </CharString>
        <CharString name="adieresis">
          -72 callgsubr
          99 118 40 callgsubr
          hintmask 01101100
          275 723 rmoveto
          -5 callsubr
          -20 -118 rlineto
          117 hlineto
          232 118 rmoveto
          -119 hlineto
          -21 -118 rlineto
          -9 callgsubr
          hintmask 10011100
          19 -478 rmoveto
          -74 callsubr
          hintmask 01101100
          -104 callgsubr
          hintmask 10101100
          -30 callsubr
          hintmask 10011100
          -21 callsubr
          hintmask 01101100
          -99 callgsubr
          endchar
        </CharString>
        <CharString name="ae">
          106 callsubr
          99 callsubr
          hintmask 11110100
          193 -12 -20 callgsubr
          hintmask 11101100
          24 callsubr
          hintmask 11110100
          -14 callsubr
        </CharString>
        <CharString name="aeacute">
          106 callsubr
          53 132 99 callsubr
          hintmask 11111010
          447 591 -100 callsubr
          -356 -735 -20 callgsubr
          hintmask 11110110
          24 callsubr
          hintmask 11111010
          -14 callsubr
        </CharString>
        <CharString name="agrave">
          -72 callgsubr
          85 55 callsubr
          hintmask 01101100
          347 591 44 callgsubr
          hintmask 10011100
          237 -464 rmoveto
          -74 callsubr
          hintmask 01101100
          -104 callgsubr
          hintmask 10101100
          -30 callsubr
          hintmask 10011100
          -21 callsubr
          hintmask 01101100
          -99 callgsubr
          endchar
        </CharString>
        <CharString name="amacron">
          -72 callgsubr
          105 88 40 callgsubr
          hintmask 01101100
          470 699 rmoveto
          -305 hlineto
          -15 -88 rlineto
          305 hlineto
          hintmask 10011100
          29 -484 rmoveto
          -74 callsubr
          hintmask 01101100
          -104 callgsubr
          hintmask 10101100
          -30 callsubr
          hintmask 10011100
          -21 callsubr
          hintmask 01101100
          -99 callgsubr
          endchar
        </CharString>
        <CharString name="ampersand">
          39 -12 111 193 112 183 111 hstemhm
          30 145 -70 137 264 141 hintmask 11110100
          298 -12 rmoveto
          169 99 85 131 24 hvcurveto
          16 88 rlineto
          95 hlineto
          19 112 rlineto
          -232 hlineto
          -36 -203 rlineto
          -65 -12 -53 -37 -98 hhcurveto
          -74 -40 25 52 95 77 21 68 hvcurveto
          66 hlineto
          19 112 rlineto
          hintmask 11101100
          -69 hlineto
          -53 -41 26 46 68 57 43 95 75 37 -23 -46 -5 0 -6 -4 -25 hvcurveto
          -21 callgsubr
          7 38 1 10 10 vvcurveto
          97 -99 61 -153 -162 -128 -75 -136 -69 41 -35 58 -27 vhcurveto
          -1 -4 rlineto
          hintmask 11110100
          -96 -18 -77 -66 -114 vvcurveto
          -107 103 -59 165 vhcurveto
          endchar
        </CharString>
        <CharString name="ampersand.alt">
          39 -14 108 -94 116 -95 -21 591 107 hstemhm
          27 132 32 128 124 129 hintmask 00111110
          672 353 rmoveto
          -129 hlineto
          -15 -55 -20 -45 -24 -36 -86 134 rcurveline
          116 45 58 90 77 vvcurveto
          73 -53 62 -115 -127 -86 -83 -105 -34 8 -37 20 -37 vhcurveto
          -122 -46 -70 -95 -95 vvcurveto
          hintmask 10011110
          -95 73 -85 153 69 69 17 35 61 vhcurveto
          hintmask 00111110
          25 -38 rlineto
          148 hlineto
          hintmask 01011110
          -75 116 rlineto
          hintmask 00111110
          53 59 43 78 26 100 rrcurveto
          -281 238 rmoveto
          35 17 -23 -27 -38 -36 -53 -63 -20 hvcurveto
          -18 27 -7 28 26 vvcurveto
          44 24 36 48 vhcurveto
          hintmask 10011110
          -135 -497 rmoveto
          -68 -29 37 50 58 44 58 70 20 hvcurveto
          121 -188 rlineto
          -24 -41 -47 -11 -50 hhcurveto
          endchar
        </CharString>
        <CharString name="aogonek">
          -92 -182 69 101 119 -92 -21 429 115 -12 -20 40 callgsubr
          171 111 hintmask 11010110
          484 127 rmoveto
          hintmask 11001110
          -74 callsubr
          hintmask 11010110
          -31 -61 rlineto
          -6 hlineto
          47 -31 -45 26 -73 hhcurveto
          -169 -66 -202 -140 -137 69 -71 103 61 57 29 52 38 hvcurveto
          6 hlineto
          hintmask 10110110
          4 -37 20 -28 33 -10 rrcurveto
          -46 -23 -32 -31 -45 65 callsubr
          24 22 5 9 27 vhcurveto
          10 55 rlineto
          -23 hlineto
          -27 -14 11 21 35 45 32 39 18 hvcurveto
          -30 callsubr
          hintmask 11010110
          -21 callsubr
          -99 callgsubr
          endchar
        </CharString>
        <CharString name="approxequal">
          -134 53 120 -59 120 30 120 -59 120 hstemhm
          -16 565 hintmask 01011000
          20 252 rmoveto
          0 72 73 84 vhcurveto
          hintmask 01101000
          24 callgsubr
          -57 -331 rmoveto
          0 71 73 84 vhcurveto
          hintmask 10011000
          24 callgsubr
          endchar
        </CharString>
        <CharString name="aring">
          -72 callgsubr
          50 57 88 57 40 callgsubr
          45 58 90 57 hintmask 0000000000000000
          hintmask 1010111110000000
          294 556 5 callsubr
          hintmask 0101011110000000
          -74 callsubr
          hintmask 0110011110000000
          -104 callgsubr
          hintmask 1010011110000000
          -30 callsubr
          hintmask 1010111110000000
          -21 callsubr
          hintmask 0110011110000000
          -99 callgsubr
          endchar
        </CharString>
        <CharString name="aringacute">
          -72 callgsubr
          50 57 88 57 19 55 callsubr
          45 58 90 57 hintmask 0110001111000000
          515 906 -24 callgsubr
          hintmask 1010111111000000
          -90 -221 5 callsubr
          hintmask 0101001111000000
          -74 callsubr
          hintmask 0110001111000000
          -104 callgsubr
          hintmask 1010001111000000
          -30 callsubr
          hintmask 1010111111000000
          -21 callsubr
          hintmask 0110001111000000
          -99 callgsubr
          endchar
        </CharString>
        <CharString name="arrowboth">
          317 198 109 hstem
          28 921 vstem
          194 69 rmoveto
          52 hlineto
          -30 129 rlineto
          526 hlineto
          -76 -129 rlineto
          107 callgsubr
          173 rlineto
          -52 hlineto
          30 -129 rlineto
          -526 hlineto
          76 129 rlineto
          -60 hlineto
          -220 -173 -3 -21 rlineto
          endchar
        </CharString>
        <CharString name="arrowdown">
          -183 11 -21 hstem
          9 376 vstem
          148 -207 52 callgsubr
          127 722 rlineto
          -109 hlineto
          -127 -722 -120 53 -9 -52 rlineto
          endchar
        </CharString>
        <CharString name="arrowleft">
          317 198 108 hstem
          23 929 vstem
          189 68 rmoveto
          52 hlineto
          -30 130 rlineto
          722 hlineto
          19 108 rlineto
          -722 hlineto
          76 130 rlineto
          -60 hlineto
          -220 -173 -3 -21 rlineto
          endchar
        </CharString>
        <CharString name="arrowright">
          317 198 108 hstem
          18 929 vstem
          664 68 rmoveto
          107 callgsubr
          174 rlineto
          -52 hlineto
          30 -130 rlineto
          -722 hlineto
          -19 -108 rlineto
          722 hlineto
          endchar
        </CharString>
        <CharString name="arrowup">
          -183 -207 918 hstem
          88 376 vstem
          99 -207 rmoveto
          109 hlineto
          127 722 9 callgsubr
          rlineto
          endchar
        </CharString>
        <CharString name="arrowupdn">
          -183 11 -21 hstem
          6 460 vstem
          145 -207 52 callgsubr
          93 526 9 callgsubr
          -93 -526 -120 53 -9 -52 rlineto
          endchar
        </CharString>
        <CharString name="arrowupdnbse">
          -183 -233 86 hstem
          -27 498 vstem
          169 -100 52 callgsubr
          74 419 9 callgsubr
          -74 -419 -120 53 -9 -52 rlineto
          -57 -330 rmoveto
          366 hlineto
          15 86 rlineto
          -366 hlineto
          endchar
        </CharString>
        <CharString name="asciicircum">
          -214 564 122 0 -20 hstemhm
          17 419 hintmask 01100000
          17 294 rmoveto
          113 hlineto
          hintmask 10100000
          147 270 53 -270 rlineto
          106 hlineto
          -88 392 rlineto
          -107 hlineto
          endchar
        </CharString>
        <CharString name="asciitilde">
          -99 211 119 -59 119 hstemhm
          23 537 hintmask 01100000
          23 199 rmoveto
          0 72 72 85 vhcurveto
          hintmask 10100000
          78 48 -60 76 hhcurveto
          97 60 72 0 hvcurveto
          21 119 rlineto
          0 -72 -72 -85 vhcurveto
          hintmask 01100000
          -78 -48 60 -76 hhcurveto
          -97 -60 -72 0 hvcurveto
          endchar
        </CharString>
        <CharString name="asterisk">
          -294 686 -20 hstemhm
          196 47 -30 47 hintmask 00000000
          hintmask 11000000
          158 362 rmoveto
          83 hlineto
          4 119 83 -74 53 71 -103 46 120 47 -29 70 rlineto
          hintmask 10100000
          -109 -73 38 118 rlineto
          -83 hlineto
          -4 -119 -83 74 -53 -70 104 -47 -121 -46 29 -71 rlineto
          hintmask 11000000
          109 74 rlineto
          endchar
        </CharString>
        <CharString name="at">
          292 -153 77 97 109 -108 101 293 105 100 77 hstemhm
          29 87 123 129 485 86 hintmask 10111111
          544 698 rmoveto
          -330 -185 -150 -336 -212 99 -153 303 80 58 9 5 33 hvcurveto
          11 81 rlineto
          0 -77 -18 -105 -242 -73 125 170 273 156 129 272 200 109 -93 -149 -129 -59 -127 -94 -26 -11 7 18 4 2 15 62 343 vhcurveto
          -106 hlineto
          -27 -56 rlineto
          -6 hlineto
          43 -28 -41 24 -67 hhcurveto
          -153 -60 -183 -128 hvcurveto
          hintmask 11011111
          -124 63 -65 93 56 52 27 47 34 vhcurveto
          6 -5 hlineto
          hintmask 10111111
          -52 55 -16 48 212 81 198 159 197 -138 122 -257 vhcurveto
          hintmask 11011111
          -101 -568 rmoveto
          -53 -22 30 57 69 22 130 100 50 27 -30 -61 -67 -30 -128 -94 hvcurveto
          endchar
        </CharString>
        <CharString name="atilde">
          -72 callgsubr
          95 85 -48 85 40 callgsubr
          hintmask 01100110
          242 638 rmoveto
          hintmask 01101010
          47 34 -37 50 hhcurveto
          hintmask 01100110
          13 callgsubr
          hintmask 10010110
          242 -511 rmoveto
          -74 callsubr
          hintmask 01100110
          -104 callgsubr
          hintmask 10100110
          -30 callsubr
          hintmask 10010110
          -21 callsubr
          hintmask 01100110
          -99 callgsubr
          endchar
        </CharString>
        <CharString name="b">
          -72 -12 115 -82 -21 419 119 185 -20 hstemhm
          428 142 hintmask 10111000
          314 -12 rmoveto
          190 66 202 141 142 -74 65 -108 -63 -52 -26 -47 -35 hvcurveto
          -6 hlineto
          45 258 -79 callsubr
          hintmask 01111000
          -127 -723 rlineto
          117 hlineto
          hintmask 10111000
          21 69 rlineto
          7 hlineto
          -54 26 56 -27 74 hhcurveto
          -33 115 rmoveto
          -59 -32 34 67 73 35 142 113 63 27 -34 -63 -75 -27 -144 -120 hvcurveto
          endchar
        </CharString>
        <CharString name="backslash">
          -405 735 -20 hstem
          74 137 vstem
          115 -49 rmoveto
          96 hlineto
          -42 784 rlineto
          -95 hlineto
          endchar
        </CharString>
        <CharString name="bar">
          88 callsubr
          -173 rmoveto
          100 896 -100 hlineto
          endchar
        </CharString>
        <CharString name="braceleft">
          85 callgsubr
          61 119 -80 111 hintmask 10111000
          256 -159 rmoveto
          13 77 rlineto
          -43 -46 8 42 hvcurveto
          hintmask 11110100
          8 31 193 29 vvcurveto
          54 -30 31 -81 vhcurveto
          1 10 rlineto
          hintmask 10110100
          107 26 40 68 14 hvcurveto
          14 67 16 63 12 66 rrcurveto
          51 9 58 10 43 hhcurveto
          13 77 rlineto
          -152 -69 -22 -126 -22 hvcurveto
          -34 -193 rlineto
          -45 -8 -53 -15 -46 hhcurveto
          hintmask 11110100
          -17 -92 rlineto
          43 45 -13 -38 hvcurveto
          hintmask 10111000
          -22 -39 -163 -50 vvcurveto
          -97 71 -18 124 vhcurveto
          endchar
        </CharString>
        <CharString name="braceright">
          85 callgsubr
          158 111 -80 119 hintmask 11010100
          -44 -159 rmoveto
          hintmask 11011000
          152 69 22 126 22 hvcurveto
          34 193 rlineto
          45 8 53 15 46 hhcurveto
          hintmask 11111000
          17 92 rlineto
          -43 -45 13 38 hvcurveto
          hintmask 11010100
          22 39 163 50 vvcurveto
          97 -71 18 -124 vhcurveto
          -13 -77 rlineto
          43 46 -8 -42 hvcurveto
          hintmask 11111000
          -8 -31 -193 -29 vvcurveto
          -54 30 -31 81 vhcurveto
          -1 -10 rlineto
          hintmask 11011000
          -107 -26 -40 -68 -14 hvcurveto
          -14 -67 -16 -63 -12 -66 rrcurveto
          -51 -9 -58 -10 -43 hhcurveto
          endchar
        </CharString>
        <CharString name="bracketleft">
          -350 -161 95 706 95 hstem
          -14 372 vstem
          -14 -161 rmoveto
          215 hlineto
          16 95 rlineto
          -100 hlineto
          125 706 rlineto
          100 hlineto
          16 95 rlineto
          -216 hlineto
          endchar
        </CharString>
        <CharString name="bracketright">
          -350 -161 95 706 95 hstem
          -43 372 vstem
          -43 -161 rmoveto
          215 hlineto
          157 896 rlineto
          -216 hlineto
          -16 -95 rlineto
          100 hlineto
          -125 -706 rlineto
          -99 hlineto
          endchar
        </CharString>
        <CharString name="breve">
          -350 586 93 callgsubr
          hstemhm
          15 92 hintmask 00000000
          hintmask 01100000
          166 586 -84 callsubr
          hintmask 10100000
          -38 callsubr
          hintmask 01100000
          -90 callsubr
          endchar
        </CharString>
        <CharString name="brokenbar">
          88 callsubr
          357 rmoveto
          100 366 -100 hlineto
          -896 vmoveto
          100 366 -100 hlineto
          endchar
        </CharString>
        <CharString name="bullet">
          -333 208 271 hstem
          40 271 vstem
          175 208 rmoveto
          75 61 60 75 75 -61 61 -75 -75 -60 -61 -75 -75 60 -60 75 hvcurveto
          endchar
        </CharString>
        <CharString name="c">
          50 callgsubr
          38 callgsubr
          253 -12 -88 callgsubr
        </CharString>
        <CharString name="cacute">
          50 callgsubr
          53 132 38 callgsubr
          261 591 -100 callsubr
          -110 -735 -88 callgsubr
        </CharString>
        <CharString name="cacute.loclPLK">
          50 callgsubr
          53 132 38 callgsubr
          252 591 -46 callsubr
          -48 -735 -88 callgsubr
        </CharString>
        <CharString name="caron">
          -350 588 135 hstem
          11 332 vstem
          93 588 -97 callgsubr
          endchar
        </CharString>
        <CharString name="ccaron">
          50 callgsubr
          50 135 38 callgsubr
          255 588 -97 callgsubr
          80 -735 -88 callgsubr
        </CharString>
        <CharString name="ccedilla">
          50 callsubr
          47 -21 435 110 hstemhm
          17 140 84 108 33 140 hintmask 10011111
          518 328 rmoveto
          3 17 1 16 15 vvcurveto
          108 -88 54 -134 -203 -80 -173 -178 -115 56 -62 112 -17 vhcurveto
          hintmask 10111111
          -23 -70 -25 callsubr
          hintmask 01011111
          -9 -49 rlineto
          hintmask 10111111
          -9 callsubr
          7 21 124 6 81 68 21 136 rlinecurve
          -132 hlineto
          -64 -11 -38 -36 -63 hhcurveto
          -66 -28 35 64 17 2 20 7 37 hvcurveto
          101 19 41 56 77 hhcurveto
          51 28 -26 -48 -8 -1 -9 -1 -9 hvcurveto
          endchar
        </CharString>
        <CharString name="ccircumflex">
          50 callgsubr
          50 135 -66 66 hstemhm
          17 140 225 140 hintmask 11101100
          143 588 -44 callgsubr
          hintmask 11011100
          62 69 rlineto
          hintmask 11101100
          -100 callgsubr
          -18 -735 -88 callgsubr
        </CharString>
        <CharString name="cdotaccent">
          50 callgsubr
          56 130 38 callgsubr
          249 -8 callsubr
          -19 -736 -88 callgsubr
        </CharString>
        <CharString name="cedilla">
          -350 -182 57 -28 -21 97 88 hstemhm
          175 108 hintmask 10110000
          131 -182 rmoveto
          53 99 14 70 43 -39 19 -48 3 hvcurveto
          14 44 rlineto
          -85 hlineto
          -29 -88 -25 callsubr
          hintmask 01110000
          -9 -49 rlineto
          hintmask 10110000
          -5 29 39 -3 34 hhcurveto
          endchar
        </CharString>
        <CharString name="cent">
          68 111 544 -20 hstem
          30 140 225 140 vstem
          190 -49 rmoveto
          51 hlineto
          21 117 rlineto
          141 83 71 139 22 hvcurveto
          -132 hlineto
          -10 -58 -32 -35 -53 -6 58 327 rcurveline
          36 -7 20 -25 -40 vvcurveto
          -8 -1 -9 -1 -9 vhcurveto
          138 hlineto
          3 17 1 16 15 vvcurveto
          95 -68 53 -108 11 vhcurveto
          19 108 rlineto
          -51 hlineto
          -19 -105 rlineto
          -199 -3 -79 -172 -176 vvcurveto
          -119 61 -63 120 -14 vhcurveto
          20 110 rmoveto
          -43 11 -18 33 52 vvcurveto
          17 2 20 7 37 vhcurveto
          16 88 34 54 59 12 rrcurveto
          endchar
        </CharString>
        <CharString name="circumflex">
          -350 588 135 -66 66 hstemhm
          -11 332 hintmask 10100000
          -11 588 -44 callgsubr
          hintmask 01100000
          62 69 rlineto
          hintmask 10100000
          -100 callgsubr
          endchar
        </CharString>
        <CharString name="colon">
          -350 0 137 252 137 hstem
          39 231 vstem
          108 389 -15 callgsubr
          -93 -526 -15 callgsubr
          endchar
        </CharString>
        <CharString name="comma">
          -405 0 137 hstem
          -13 190 vstem
          -13 -156 -52 callsubr
          endchar
        </CharString>
        <CharString name="copyright">
          54 -12 62 81 66 289 66 84 62 hstem
          13 64 112 79 182 78 131 -28 callgsubr
          81 vmoveto
          115 45 78 88 hvcurveto
          -74 hlineto
          -65 -24 -35 -62 -71 -29 41 103 105 31 40 69 63 19 -31 -69 vhcurveto
          78 hlineto
          108 -47 58 -113 -122 -57 -66 -145 -144 56 -66 123 vhcurveto
          endchar
        </CharString>
        <CharString name="currency">
          102 79 338 79 hstem
          33 82 326 82 vstem
          74 99 rmoveto
          55 58 rlineto
          -37 40 55 -18 54 hhcurveto
          54 55 18 37 40 hvcurveto
          55 -58 45 45 -54 56 rlineto
          34 42 16 54 55 vvcurveto
          55 -16 56 -34 39 vhcurveto
          55 54 -48 48 -57 -56 rlineto
          33 -38 -54 18 -53 hhcurveto
          -53 -54 -18 -33 -38 hvcurveto
          -57 56 -48 -48 55 -54 rlineto
          -34 -39 -16 -56 -55 vvcurveto
          -55 16 -54 34 -42 vhcurveto
          -54 -56 rlineto
          249 37 rmoveto
          -91 -72 79 91 89 73 79 90 90 73 -79 -89 -91 -72 -79 -91 hvcurveto
          endchar
        </CharString>
        <CharString name="d">
          -72 -12 70 callgsubr
          185 -20 103 callgsubr
          hintmask 10111000
          0 callsubr
          hintmask 01111000
          -40 callgsubr
          hintmask 10111000
          23 callsubr
          endchar
        </CharString>
        <CharString name="dagger">
          -152 -21 859 -20 hstem
          54 505 vstem
          137 -173 rmoveto
          114 hlineto
          85 598 203 -18 20 113 -209 58 callsubr
          rlineto
          endchar
        </CharString>
        <CharString name="daggerdbl">
          -152 -21 190 -21 690 -20 hstemhm
          -19 575 -350 123.5 hintmask 11110000
          138 -173 rmoveto
          108 hlineto
          16 186 202 -17 19 113 rlineto
          hintmask 11101000
          -208 -18 50 169 9 165 202 -18 20 113 -208 58 callsubr
          -49 -165 -10 -169 -202 18 -18 -113 207 17 rlineto
          endchar
        </CharString>
        <CharString name="dcaron">
          36 -12 70 callgsubr
          21 127 -127 164 103 callgsubr
          hintmask 10100100
          0 callsubr
          hintmask 01101100
          -69 114 vlineto
          -18 callsubr
          hintmask 10100100
          -45 -258 rlineto
          -6 hlineto
          47 -33 -48 26 -78 hhcurveto
          -176 -69 -202 -140 -144 71 -64 119 hvcurveto
          407 454 rmoveto
          72 hlineto
          89 129 rlineto
          hintmask 10110100
          16 callgsubr
          55 hlineto
          -441 -452 rmoveto
          -63 -27 34 63 hvcurveto
          hintmask 10100100
          75 22 144 125 59 32 -34 -67 vhcurveto
          hintmask 10110100
          -93 -35 -122 -113 vhcurveto
          endchar
        </CharString>
        <CharString name="dcroat">
          -72 -12 70 callgsubr
          49 71 -71 136 103 callgsubr
          hintmask 10101100
          0 callsubr
          hintmask 01101100
          -69 114 vlineto
          103 587 rlineto
          58 hlineto
          hintmask 10110100
          13 71 rlineto
          -59 hlineto
          hintmask 10101100
          12 65 -79 callsubr
          hintmask 10110100
          -11 -65 rlineto
          -154 hlineto
          hintmask 10101100
          -13 -71 rlineto
          154 hlineto
          -21 -122 rlineto
          -6 hlineto
          47 -33 -48 26 -78 hhcurveto
          -176 -69 -202 -140 -144 71 -64 119 hvcurveto
          42 119 6 callgsubr
        </CharString>
        <CharString name="degree">
          -283 386 82 147 83 hstem
          44 82 147 83 vstem
          200 386 rmoveto
          87 69 69 87 87 -69 69 -87 -87 -69 -69 -87 -87 69 -69 87 hvcurveto
          82 vmoveto
          -41 -33 33 41 41 33 32 41 41 32 -32 -41 -41 -32 -33 -41 hvcurveto
          endchar
        </CharString>
        <CharString name="dieresis">
          -350 605 118 hstem
          -8 349 vstem
          -8 605 -101 callsubr
          endchar
        </CharString>
        <CharString name="divide">
          -134 1 110 92 105 94 110 hstem
          17 491 vstem
          227 402 100 callgsubr
          -230 -309 rmoveto
          472 hlineto
          19 105 rlineto
          -472 hlineto
          120 -307 100 callgsubr
          endchar
        </CharString>
        <CharString name="dollar">
          68 178 205 164 108 -20 hstemhm
          19 137 -87 141 150 142 -114 139 hintmask 11101100
          184 -49 rmoveto
          51 hlineto
          20 116 rlineto
          128 1 119 48 143 vvcurveto
          103 -103 23 -84 20 vhcurveto
          hintmask 11101010
          19 104 rlineto
          33 -5 21 -16 -27 vvcurveto
          -2 0 -3 -1 -5 vhcurveto
          133 hlineto
          0 7 21 23 vvcurveto
          68 -71 43 -103 9 vhcurveto
          19 108 rlineto
          -51 hlineto
          -19 -106 rlineto
          -130 -3 -103 -60 -118 vvcurveto
          -97 94 -25 82 -21 vhcurveto
          hintmask 11110100
          -21 -118 rlineto
          -37 5 -31 15 36 vvcurveto
          3 1 8 2 4 vhcurveto
          -133 hlineto
          -4 -10 -3 -16 -13 vvcurveto
          -77 66 -52 120 -10 vhcurveto
          hintmask 11101100
          62 349 rmoveto
          -34 10 -23 13 23 vvcurveto
          26 29 17 44 4 vhcurveto
          -9 -336 rmoveto
          19 106 rlineto
          39 -11 28 -15 -27 vvcurveto
          -37 -43 -13 -43 -3 vhcurveto
          endchar
        </CharString>
        <CharString name="dotaccent">
          -350 594 130 hstem
          88 158 vstem
          88 -8 callsubr
          endchar
        </CharString>
        <CharString name="dotbelowcomb">
          -683 -22 callsubr
          hstem
          -321 158 vstem
          -321 -173 -95 callsubr
          endchar
        </CharString>
        <CharString name="dotlessi">
          -7 callsubr
          hstem
          13 230 vstem
          13 hmoveto
          -57 callgsubr
          endchar
        </CharString>
        <CharString name="e">
          -39 callgsubr
          hstem
          -33 callsubr
          vstem
          254 -12 -104 callsubr
        </CharString>
        <CharString name="eacute">
          -39 callgsubr
          53 132 hstem
          -33 callsubr
          vstem
          264 591 -100 callsubr
          -112 -79 callgsubr
        </CharString>
        <CharString name="ebreve">
          -39 callgsubr
          48 93 callgsubr
          hstemhm
          17 138 13 92 122 137 hintmask 00000000
          hintmask 11101111
          319 586 -84 callsubr
          hintmask 11110111
          -38 callsubr
          hintmask 11101111
          -90 callsubr
          hintmask 11101101
          -65 -598 -104 callsubr
        </CharString>
        <CharString name="ecaron">
          -39 callgsubr
          50 135 hstem
          -33 callsubr
          vstem
          258 588 -97 callgsubr
          78 -79 callgsubr
        </CharString>
        <CharString name="ecircumflex">
          -39 callgsubr
          50 135 -66 66 32 callsubr
          hintmask 11110110
          146 588 -44 callgsubr
          hintmask 11101110
          62 69 rlineto
          hintmask 11110110
          -89 callgsubr
          endchar
        </CharString>
        <CharString name="edieresis">
          -39 callgsubr
          67 118 hstem
          -33 callsubr
          vstem
          159 605 -101 callsubr
          -135 -79 callgsubr
        </CharString>
        <CharString name="edotaccent">
          -39 callgsubr
          56 130 hstem
          -33 callsubr
          vstem
          252 -8 callsubr
          -21 -736 -104 callsubr
        </CharString>
        <CharString name="egrave">
          -39 callgsubr
          53 132 hstem
          -33 callsubr
          vstem
          269 591 -78 callgsubr
          70 -732 -104 callsubr
        </CharString>
        <CharString name="eight">
          -12 110 198 109 183 110 hstemhm
          2 144 -71 138 145 140 -102 141 hintmask 00000000
          hintmask 11110100
          235 -12 rmoveto
          177 86 107 121 60 -25 48 -59 28 hvcurveto
          hintmask 11101010
          80 37 43 68 76 vvcurveto
          94 -68 71 -144 -155 -95 -105 -119 -51 22 -44 46 -27 vhcurveto
          hintmask 11110100
          -93 -36 -48 -76 -91 vvcurveto
          -92 66 -69 167 vhcurveto
          hintmask 11101010
          53 417 rmoveto
          -50 -25 23 44 74 45 42 63 48 27 -24 -44 -74 -46 -41 -62 hvcurveto
          hintmask 11110100
          -54 -307 rmoveto
          -58 -30 27 48 77 50 46 73 58 31 -27 -49 -74 -55 -48 -69 hvcurveto
          endchar
        </CharString>
        <CharString name="ellipsis">
          317 0 137 hstem
          38 829 vstem
          38 hmoveto
          -8 callgsubr
          308 -137 rmoveto
          -8 callgsubr
          308 -137 rmoveto
          -8 callgsubr
          endchar
        </CharString>
        <CharString name="emacron">
          -39 callgsubr
          73 88 hstem
          -33 callsubr
          vstem
          172 611 -58 callsubr
          67 -711 -104 callsubr
        </CharString>
        <CharString name="emdash">
          43 callgsubr
        </CharString>
        <CharString name="endash">
          221 98 hstem
          -15 572 vstem
          -15 221 95 callsubr
        </CharString>
        <CharString name="eng">
          74 callsubr
          91 43 callsubr
          330 53 callsubr
          63 354 rlineto
          6 32 4 27 26 vvcurveto
          hintmask 11101000
          102 -70 38 -80 -71 -65 -38 -45 76 callsubr
          hintmask 11011000
          87 callsubr
          -93 -526 rlineto
          -21 callgsubr
          87 callgsubr
          hintmask 11101000
          94 17 56 49 69 hhcurveto
          42 25 -18 -47 -15 -3 -15 -3 -18 hvcurveto
          -59 -331 rlineto
          -28 -5 -17 -15 -28 hhcurveto
          -52 hlineto
          -16 -96 rlineto
          hintmask 11011000
          -14 callgsubr
        </CharString>
        <CharString name="eogonek">
          -182 69 -48 -21 170 -43 callsubr
          hstemhm
          17 138 113 112 2 137 hintmask 00000000
          hintmask 01111110
          360 -182 rmoveto
          24 23 5 9 27 hvcurveto
          hintmask 10111110
          10 55 rlineto
          -16 hlineto
          -27 -21 21 25 24 3 42 55 58 hvcurveto
          32 34 18 40 9 55 rrcurveto
          46 callsubr
          -11 -38 -31 -63 hhcurveto
          -68 -27 31 60 14 1 15 3 17 hvcurveto
          hintmask 01111101
          346 hlineto
          6 32 rlineto
          5 28 3 -65 callsubr
          -209 -75 -178 -173 -42 callgsubr
          hintmask 01111110
          21 19 1 4 21 hvcurveto
          -26 -26 -21 -33 -38 vvcurveto
          -59 44 -19 48 vhcurveto
          hintmask 01111101
          -183 504 rmoveto
          72 21 39 37 70 hhcurveto
          46 29 -22 -53 -10 -1 -12 -2 -12 hvcurveto
          endchar
        </CharString>
        <CharString name="equal">
          -99 96 103 109 104 hstem
          21 527 vstem
          58 308 rmoveto
          472 hlineto
          18 104 rlineto
          -472 hlineto
          -55 -316 rmoveto
          472 hlineto
          18 103 rlineto
          -472 hlineto
          endchar
        </CharString>
        <CharString name="equivalence">
          -100 17 103 109 104 109 104 hstem
          5 566 vstem
          80 442 rmoveto
          473 hlineto
          18 104 rlineto
          -473 hlineto
          -56 -317 rmoveto
          473 hlineto
          19 104 rlineto
          -473 hlineto
          -56 -316 rmoveto
          473 hlineto
          18 103 rlineto
          -473 hlineto
          endchar
        </CharString>
        <CharString name="estimated">
          -83 -12 42 218 42 206 42 hstem
          45 108 298 108 vstem
          302 -12 rmoveto
          104 78 50 80 42 hvcurveto
          -34 21 rlineto
          -67 -34 -68 -42 -88 hhcurveto
          -62 -50 19 34 -37 hvcurveto
          165 406 5 vlineto
          165 -98 120 -159 -160 -97 -116 -159 -159 97 -116 160 vhcurveto
          -149 302 rmoveto
          152 vlineto
          34 37 50 20 62 hhcurveto
          61 50 -20 -35 38 hvcurveto
          -151 vlineto
          endchar
        </CharString>
        <CharString name="eth">
          -72 -12 112 316 112 61 70.5 -70.5 134 -113.5 76.5 -23 60 103 callgsubr
          266 144 hintmask 11010011
          265 -12 rmoveto
          228 77 157 203 hvcurveto
          hintmask 11001011
          96 -30 88 -49 74 vhcurveto
          103 7 13 73 -171 -12 rlineto
          hintmask 11010011
          -13 17 -17 16 -17 16 rrcurveto
          -156 hlineto
          -5 -5 rlineto
          hintmask 11000111
          19 -18 19 -18 17 -19 rrcurveto
          hintmask 11100011
          -103 -7 rlineto
          hintmask 11010011
          -12 -73 168 12 20 -28 15 -27 11 -27 rlinecurve
          -5 -4 rlineto
          12 -31 -37 7 -39 hhcurveto
          -60 -57 -22 -42 -42 hvcurveto
          -59 -59 -34 -96 -117 vvcurveto
          -140 81 -64 166 vhcurveto
          -1 112 rmoveto
          -74 -30 34 65 16 2 17 6 35 hvcurveto
          97 17 43 52 92 hhcurveto
          75 31 -34 -65 -15 -2 -17 -6 -34 hvcurveto
          -98 -18 -43 -53 -93 hhcurveto
          endchar
        </CharString>
        <CharString name="exclam">
          -350 0 137 549 -20 hstem
          39 266 vstem
          99 197 61 callsubr
          -113 -686 -15 callgsubr
          endchar
        </CharString>
        <CharString name="exclamdbl">
          -79 0 137 549 -20 hstem
          39 563 vstem
          99 197 61 callsubr
          244 -489 61 callsubr
          -410 -686 -15 callgsubr
          273 -137 -15 callgsubr
          endchar
        </CharString>
        <CharString name="exclamdown">
          -350 389 137 hstem
          11 266 vstem
          115 389 -15 callgsubr
          -128 -686 rmoveto
          153 hlineto
          53 489 rlineto
          -82 hlineto
          endchar
        </CharString>
        <CharString name="f">
          -350 33 callgsubr
          484 112 93 112 hstem
          -98 478 vstem
          51 callgsubr
          9 50 -75 callsubr
          82 callgsubr
          endchar
        </CharString>
        <CharString name="f_f">
          -17 73 callgsubr
          93 112 hstem
          -98 811 vstem
          646 619 rmoveto
          50 hlineto
          17 96 rlineto
          8 -21 -42 8 -32 hhcurveto
          -103 -43 -73 -72 -12 hvcurveto
          -10 -60 rlineto
          -196 hlineto
          9 50 -75 callsubr
          82 callgsubr
          73 callsubr
          196 hlineto
          -73 -414 rlineto
          -21 callgsubr
          73 414 rlineto
          93 hlineto
          20 112 rlineto
          -93 hlineto
          9 50 rlineto
          28 5 17 15 28 hhcurveto
          endchar
        </CharString>
        <CharString name="fi">
          -72 73 callgsubr
          73 124 -104 112 hstemhm
          -98 708 hintmask 11110100
          51 callgsubr
          hintmask 11101100
          9 50 -75 callsubr
          hintmask 11110100
          82 callgsubr
          454 781 -34 callgsubr
          -127 0 callgsubr
        </CharString>
        <CharString name="five">
          -12 112 238 108 118 122 hstem
          10 142 207 143 vstem
          239 -12 rmoveto
          146 117 105 177 120 -73 56 -102 -55 -37 -20 -14 -24 hvcurveto
          36 152 rlineto
          276 hlineto
          21 122 rlineto
          -397 hlineto
          -94 -380 127 -16 rlineto
          25 24 30 23 44 hhcurveto
          48 33 -27 -57 -103 -63 -51 -61 -53 -30 31 52 9 1 10 2 11 hvcurveto
          -141 hlineto
          -3 -17 -1 -15 -15 vvcurveto
          -113 87 -65 142 vhcurveto
          endchar
        </CharString>
        <CharString name="fiveeighths">
          69 callsubr
          -43 68 110 67 48 74 12 -20 hstemhm
          57 84 94 85 166 79 callsubr
          hintmask 1110110111010000
          40 -12 rmoveto
          96 hlineto
          hintmask 1101101111010000
          18 callgsubr
          -534 -379 rmoveto
          80 63 54 95 65 -38 31 -52 -25 -21 -7 -7 -13 hvcurveto
          hintmask 1101110111010000
          15 62 rlineto
          143 hlineto
          13 74 rlineto
          -214 hlineto
          -50 -204 74 -10 rlineto
          14 13 14 11 20 hhcurveto
          21 15 -11 -25 -48 -28 -26 -28 -24 -14 13 21 5 1 4 1 5 hvcurveto
          -84 hlineto
          -2 -9 0 -8 -8 vvcurveto
          hintmask 1101101111010000
          -58 45 -33 75 vhcurveto
          hintmask 1110110111010000
          433 -331 35 callsubr
          hintmask 1110110110101000
          -6 callgsubr
          hintmask 1110110111010000
          62 callsubr
          hintmask 1110110110101000
          -11 callsubr
          hintmask 1110110111010000
          -15 callsubr
        </CharString>
        <CharString name="fl">
          -72 73 callgsubr
          93 112 -8 -20 hstemhm
          -98 708 hintmask 11101100
          51 callgsubr
          hintmask 11110100
          9 50 -75 callsubr
          hintmask 11101100
          82 callgsubr
          349 182 rmoveto
          36 callsubr
          endchar
        </CharString>
        <CharString name="florin">
          -183 112 449 112 129 112 hstem
          -39 585 vstem
          43 -183 rmoveto
          109 49 58 87 26 hvcurveto
          126 416 rlineto
          93 hlineto
          32 112 rlineto
          -93 hlineto
          27 86 rlineto
          28 8 20 15 28 hhcurveto
          50 hlineto
          28 96 rlineto
          8 -18 -36 8 -29 hhcurveto
          -110 -47 -57 -88 -28 hvcurveto
          -30 -96 rlineto
          -75 hlineto
          -32 -112 rlineto
          75 hlineto
          -123 -406 rlineto
          -28 -8 -19 -15 -28 hhcurveto
          -50 hlineto
          -27 -96 rlineto
          -8 17 36 -8 29 hhcurveto
          endchar
        </CharString>
        <CharString name="four">
          21 -21 146 112 440 -20 hstem
          -15 531 vstem
          252 hmoveto
          -21 callgsubr
          26 146 rlineto
          82 hlineto
          19 112 rlineto
          -82 hlineto
          60 338 rlineto
          -63 hlineto
          -24 -54 -47 -89 -38 -53 -25 -142 rcurveline
          -168 hlineto
          52 54 152 210 73 176 rrcurveto
          -152 hlineto
          -73 -171 -78 -144 -100 -125 -18 -112 rcurveline
          293 hlineto
          endchar
        </CharString>
        <CharString name="fraction">
          32 callgsubr
        </CharString>
        <CharString name="franc">
          21 -21 256 123 -40 125 99 123 hstemhm
          0 575 hintmask 11011000
          0 vmoveto
          144 hlineto
          45 256 rlineto
          87 hlineto
          -45 -256 rlineto
          -21 callgsubr
          34 192 rlineto
          hintmask 10111000
          96 17 33 51 63 hhcurveto
          38 hlineto
          22 128 rlineto
          0 -14 9 -24 -47 -33 -44 -53 -24 vhcurveto
          -7 85 -113 hlineto
          hintmask 11011000
          -15 -85 rlineto
          -87 hlineto
          32 184 rlineto
          212 -72 callsubr
          -357 hlineto
          endchar
        </CharString>
        <CharString name="g">
          -36 callgsubr
          109 callgsubr
          hintmask 11101000
          216 -182 4 callsubr
          hintmask 11011000
          28 callgsubr
          hintmask 11101000
          -86 callgsubr
          28 callsubr
          -70 callsubr
        </CharString>
        <CharString name="g_tilde.loclGUA">
          -36 callgsubr
          95 85 -48 85 109 callgsubr
          hintmask 00000000
          hintmask 11101010
          156 66 callgsubr
          hintmask 11100110
          11 callsubr
          hintmask 11101010
          47 34 -37 50 hhcurveto
          hintmask 11100110
          68 36 57 65 11 hvcurveto
          -70 hlineto
          hintmask 11101010
          -39 callsubr
          -47 -34 37 -51 hhcurveto
          -67 -35 -57 -65 -11 hvcurveto
          hintmask 11010110
          60 -783 4 callsubr
          28 callgsubr
          hintmask 11100110
          -86 callgsubr
          hintmask 11010110
          28 callsubr
          hintmask 11100110
          -70 callsubr
        </CharString>
        <CharString name="gbreve">
          -36 callgsubr
          80 89 -89 137 109 callgsubr
          6 92 hintmask 00000000
          hintmask 11100101
          321 586 -84 callsubr
          hintmask 11101001
          -38 callsubr
          hintmask 11100101
          -90 callsubr
          hintmask 11010110
          -105 -768 4 callsubr
          28 callgsubr
          hintmask 11100110
          -86 callgsubr
          hintmask 11010110
          28 callsubr
          hintmask 11100110
          -70 callsubr
        </CharString>
        <CharString name="gcaron">
          -36 callgsubr
          82 135 109 callgsubr
          hintmask 11101100
          260 588 -97 callgsubr
          38 -905 4 callsubr
          hintmask 11011100
          28 callgsubr
          hintmask 11101100
          -86 callgsubr
          28 callsubr
          -70 callsubr
        </CharString>
        <CharString name="gcircumflex">
          -36 callgsubr
          82 135 -66 66 109 callgsubr
          hintmask 11101010
          148 588 -44 callgsubr
          hintmask 11100110
          62 69 rlineto
          hintmask 11011010
          -100 callgsubr
          -60 -905 4 callsubr
          28 callgsubr
          hintmask 11101010
          -86 callgsubr
          hintmask 11011010
          28 callsubr
          hintmask 11101010
          -70 callsubr
        </CharString>
        <CharString name="gcommaaccent">
          -36 callgsubr
          79 98 109 callgsubr
          hintmask 11101100
          262 585 rmoveto
          138 hlineto
          18 98 rlineto
          -53 hlineto
          70 97 rlineto
          -72 hlineto
          -86 -109 rlineto
          -61 -853 4 callsubr
          hintmask 11011100
          28 callgsubr
          hintmask 11101100
          -86 callgsubr
          28 callsubr
          -70 callsubr
        </CharString>
        <CharString name="gdotaccent">
          -36 callgsubr
          88 130 109 callgsubr
          hintmask 11101100
          254 -8 callsubr
          -61 -906 4 callsubr
          hintmask 11011100
          28 callgsubr
          hintmask 11101100
          -86 callgsubr
          28 callsubr
          -70 callsubr
        </CharString>
        <CharString name="germandbls">
          -72 0 111 210 121 183 110 hstemhm
          417 138 -108 143 hintmask 11110000
          9 hmoveto
          -21 callgsubr
          91 519 rlineto
          hintmask 11101000
          68 12 48 38 62 hhcurveto
          62 26 -33 -47 -63 -43 -40 -61 hvcurveto
          -61 hlineto
          -21 -121 rlineto
          hintmask 11110000
          64 hlineto
          57 35 -38 -53 -60 -42 -59 -92 hvcurveto
          -59 hlineto
          -19 -111 rlineto
          72 hlineto
          181 97 92 136 86 -33 51 -73 27 hvcurveto
          4 vlineto
          hintmask 11101000
          86 26 55 60 86 vvcurveto
          105 -80 62 -151 -64 -61 -15 -37 -46 vhcurveto
          -44 -36 -31 -57 -14 -79 rrcurveto
          endchar
        </CharString>
        <CharString name="grave">
          80 callsubr
          86 185 vstem
          171 591 -78 callgsubr
          endchar
        </CharString>
        <CharString name="greater">
          -99 2 520 hstem
          6 531 vstem
          6 2 47 callgsubr
          endchar
        </CharString>
        <CharString name="greaterequal">
          -134 0 104 426 -20 hstem
          -18 552 vstem
          3 124 47 callgsubr
          -41 -246 rmoveto
          472 hlineto
          18 104 rlineto
          -472 hlineto
          endchar
        </CharString>
        <CharString name="guillemotleft">
          326 200 0 -20 hstemhm
          59 494 hintmask 01100000
          159 126 rmoveto
          99 hlineto
          hintmask 10100000
          30 callgsubr
          324 -200 rmoveto
          99 hlineto
          30 callgsubr
          endchar
        </CharString>
        <CharString name="guillemotright">
          326 200 0 -20 hstemhm
          3 491 hintmask 01100000
          3 126 rmoveto
          109 hlineto
          hintmask 10100000
          44 callsubr
          76 -200 rmoveto
          109 hlineto
          44 callsubr
          endchar
        </CharString>
        <CharString name="guilsinglleft">
          -350 526 -20 hstem
          59 270 vstem
          159 126 rmoveto
          99 hlineto
          30 callgsubr
          endchar
        </CharString>
        <CharString name="guilsinglright">
          -350 526 -20 hstem
          3 271 vstem
          3 126 rmoveto
          109 hlineto
          44 callsubr
          endchar
        </CharString>
        <CharString name="h">
          -72 21 -21 417 121 185 -20 hstem
          412 143 vstem
          17 hmoveto
          -64 callsubr
          45 258 -79 callsubr
          endchar
        </CharString>
        <CharString name="hbar">
          -72 21 -21 417 121 49 71 -71 136 45 callsubr
          hintmask 11011000
          17 hmoveto
          -64 callsubr
          21 122 rlineto
          154 hlineto
          hintmask 11101000
          13 71 rlineto
          -154 hlineto
          hintmask 11011000
          11 65 -79 callsubr
          hintmask 11101000
          -12 -65 rlineto
          -57 hlineto
          hintmask 11011000
          -13 -71 rlineto
          58 hlineto
          endchar
        </CharString>
        <CharString name="hcircumflex">
          -72 21 -21 417 121 185 -20 45 135 45 callsubr
          hintmask 00000000
          hintmask 11111000
          44 748 -95 callgsubr
          -155 -883 rmoveto
          -64 callsubr
          hintmask 11101000
          45 258 -79 callsubr
          endchar
        </CharString>
        <CharString name="hookabovecomb">
          -683 591 72 callgsubr
          -193 200 -110 110 hintmask 11100000
          -162 591 rmoveto
          68 hlineto
          hintmask 11010000
          -101 callgsubr
          -16 -9 -7 -26 hvcurveto
          -14 hlineto
          endchar
        </CharString>
        <CharString name="house">
          -79 0 70 hstem
          77 69 312 69 vstem
          77 hmoveto
          450 310 hlineto
          -225 253 -225 -253 rlineto
          69 -240 rmoveto
          213 vlineto
          156 178 156 -178 rlineto
          -213 vlineto
          endchar
        </CharString>
        <CharString name="hungarumlaut">
          80 callsubr
          -8 418 vstem
          -8 591 -51 callgsubr
          endchar
        </CharString>
        <CharString name="hyphen">
          33 callsubr
        </CharString>
        <CharString name="i">
          -7 callsubr
          93 124 hstem
          13 264 25 callgsubr
          endchar
        </CharString>
        <CharString name="i.loclTRK">
          -7 callsubr
          88 130 hstem
          13 264 vstem
          119 -8 callsubr
          -129 -724 -52 callgsubr
        </CharString>
        <CharString name="iacute">
          -405 21 80 callgsubr
          hstem
          13 341 vstem
          113 591 -100 callsubr
          -202 0 callgsubr
        </CharString>
        <CharString name="iacute_j.loclNLD">
          54 callgsubr
          85 132 hstem
          13 637 vstem
          131 591 -100 callsubr
          176 -132 -100 callsubr
          -498 48 callsubr
          163 -708 -82 callsubr
        </CharString>
        <CharString name="ibreve">
          -7 callsubr
          80 89 -89 137 hstemhm
          13 347 -325 92 hintmask 00000000
          hintmask 11010100
          186 586 -84 callsubr
          hintmask 11100100
          -38 callsubr
          hintmask 11010100
          -90 callsubr
          hintmask 11011000
          -173 -586 -52 callgsubr
        </CharString>
        <CharString name="icircumflex">
          -7 callsubr
          82 135 -66 66 hstemhm
          10 332 hintmask 11101000
          10 588 -44 callgsubr
          hintmask 11011000
          62 69 rlineto
          hintmask 11101000
          -100 callgsubr
          -125 0 callgsubr
        </CharString>
        <CharString name="idieresis">
          -7 callsubr
          99 118 hstem
          13 356 vstem
          20 605 -101 callsubr
          -237 0 callgsubr
        </CharString>
        <CharString name="igrave">
          -405 21 80 callgsubr
          hstem
          13 235 vstem
          148 591 -78 callgsubr
          -50 -720 -52 callgsubr
        </CharString>
        <CharString name="ij">
          54 callgsubr
          93 124 hstem
          13 542 vstem
          118 21 callsubr
          256 -124 -34 callgsubr
          -405 48 callsubr
          163 -708 -82 callsubr
        </CharString>
        <CharString name="imacron">
          -7 callsubr
          133 88 hstem
          13 338 vstem
          31 639 -58 callsubr
          -33 -727 -52 callgsubr
        </CharString>
        <CharString name="infinity">
          30 138 83 154 82 hstem
          43 96 432 96 vstem
          177 138 rmoveto
          64 49 38 56 52 hvcurveto
          -83 46 61 -11 44 hhcurveto
          90 84 70 118 83 -59 48 -78 -73 -50 -58 -32 -33 hvcurveto
          59 -35 -45 31 -72 hhcurveto
          -101 -78 -77 -108 -84 59 -50 75 hvcurveto
          18 83 rmoveto
          -34 -22 29 36 58 45 31 35 42 17 -19 -63 30 hvcurveto
          -35 -30 -41 -37 -42 hhcurveto
          299 hmoveto
          -33 -23 12 65 -35 hvcurveto
          56 54 24 21 35 hhcurveto
          35 20 -27 -37 -30 -22 -60 -55 hvcurveto
          endchar
        </CharString>
        <CharString name="integral">
          -409 -141 70 79 -21 803 69 hstem
          -65 412 vstem
          -65 -141 rmoveto
          128 61 17 95 17 hvcurveto
          26 149 80 613 0 vvcurveto
          43 8 36 14 43 hhcurveto
          13 69 rlineto
          -128 -64 -18 -94 -16 hvcurveto
          -27 -150 -80 -610 0 vvcurveto
          -44 -8 -33 -14 -43 hhcurveto
          endchar
        </CharString>
        <CharString name="integralbt">
          -79 -250 69 hstem
          79 369 vstem
          79 -250 rmoveto
          128 62 18 94 17 hvcurveto
          14 80 78 477 70 440 rrcurveto
          -114 hlineto
          -156 -983 rlineto
          -43 -8 -36 -14 -43 hhcurveto
          endchar
        </CharString>
        <CharString name="integraltp">
          -79 790 69 hstem
          155 369 vstem
          155 -250 rmoveto
          114 hlineto
          156 983 rlineto
          43 8 36 14 43 hhcurveto
          12 69 rlineto
          -128 -62 -18 -94 -17 hvcurveto
          -14 -80 -79 -477 -69 -440 rrcurveto
          endchar
        </CharString>
        <CharString name="intersection">
          39 21 -21 589 87 hstem
          552 93 vstem
          37 hmoveto
          92 hlineto
          72 410 rlineto
          105 18 81 74 108 hhcurveto
          91 53 -58 -85 -12 -1 -12 -2 -12 hvcurveto
          -72 -410 rlineto
          92 hlineto
          72 410 rlineto
          3 17 1 16 16 vvcurveto
          127 -100 90 -143 -137 -127 -101 -165 -29 vhcurveto
          endchar
        </CharString>
        <CharString name="iogonek">
          -405 -190 69 142 57 callsubr
          88 130 hstem
          -55 112 vstem
          142 724 rmoveto
          -23 -130 rlineto
          135 hlineto
          23 130 rlineto
          -264 -723 rmoveto
          -32 -26 -36 -35 -53 -27 callgsubr
          48 -44 callsubr
          endchar
        </CharString>
        <CharString name="itilde">
          -7 callsubr
          95 93 callsubr
          -2 356 hintmask 00000000
          hintmask 11101000
          -2 -2 callsubr
          15 -601 -52 callgsubr
        </CharString>
        <CharString name="j">
          -405 33 callgsubr
          596 -20 93 124 hstem
          -110 387 vstem
          118 21 callsubr
          -149 -905 -82 callsubr
        </CharString>
        <CharString name="jcircumflex">
          -405 33 callgsubr
          596 -20 82 135 -66 66 hstemhm
          -110 446 hintmask 11101000
          4 588 -44 callgsubr
          hintmask 11011000
          62 69 rlineto
          hintmask 11101000
          -100 callgsubr
          -141 -905 -82 callsubr
        </CharString>
        <CharString name="k">
          21 57 callsubr
          217 -29 callgsubr
          72 408 -79 callsubr
          endchar
        </CharString>
        <CharString name="kcommaaccent">
          -138 98 61 57 callsubr
          217 -29 callgsubr
          72 408 -79 callsubr
          -953 vmoveto
          73 hlineto
          -62 callgsubr
        </CharString>
        <CharString name="kgreenlandic">
          21 -21 526 -29 callgsubr
          37 211 -79 callsubr
          endchar
        </CharString>
        <CharString name="l">
          41 callsubr
          723 -20 hstem
          13 264 14 callsubr
          endchar
        </CharString>
        <CharString name="lacute">
          41 callsubr
          723 -20 48 132 hstemhm
          13 393 hintmask 00000000
          hintmask 11110000
          165 751 -100 callsubr
          -254 -883 -3 callgsubr
          hintmask 11010000
          -18 callsubr
          endchar
        </CharString>
        <CharString name="lcaron">
          -298 21 -21 559 127 -127 164 hstemhm
          13 452 hintmask 11010000
          91 callgsubr
          hintmask 10110000
          -18 callsubr
          144 -281 rmoveto
          72 hlineto
          89 129 rlineto
          hintmask 11010000
          16 callgsubr
          53 hlineto
          endchar
        </CharString>
        <CharString name="lcommaaccent">
          -405 -138 98 61 -21 723 -20 hstem
          -26 303 14 callsubr
          -166 -953 rmoveto
          73 hlineto
          -62 callgsubr
        </CharString>
        <CharString name="ldot">
          -315 21 -21 289 137 297 -20 hstem
          13 399 14 callsubr
          109 -434 rmoveto
          -8 callgsubr
          endchar
        </CharString>
        <CharString name="less">
          -99 2 520 hstem
          36 531 vstem
          476 2 rmoveto
          20 114 -347 142 398 142 20 122 -508 -197 -23 -127 rlineto
          endchar
        </CharString>
        <CharString name="lessequal">
          -134 0 104 hstem
          -17 584 vstem
          476 123 rmoveto
          20 114 -347 142 398 142 20 122 -508 -197 -23 -127 rlineto
          -53 -319 rmoveto
          472 hlineto
          18 104 rlineto
          -473 hlineto
          endchar
        </CharString>
        <CharString name="lira">
          0 112 82 92 53 92 155 59 callsubr
          26 82 rlineto
          158 hlineto
          16 92 rlineto
          -158 hlineto
          10 53 rlineto
          158 hlineto
          16 92 rlineto
          -156 hlineto
          14 81 rlineto
          44 8 36 30 50 hhcurveto
          45 26 -23 -39 -5 0 -5 -4 -23 hvcurveto
          136 hlineto
          5 25 1 10 22 vvcurveto
          100 -80 50 -129 -128 -83 -66 -133 -23 vhcurveto
          -12 -68 rlineto
          -75 hlineto
          -16 -92 rlineto
          75 hlineto
          -10 -53 rlineto
          -74 hlineto
          -16 -92 rlineto
          74 hlineto
          -14 -82 rlineto
          -61 hlineto
          endchar
        </CharString>
        <CharString name="logicalnot">
          -99 357 98 hstem
          47 518 vstem
          420 193 rmoveto
          98 hlineto
          47 262 rlineto
          -500 hlineto
          -18 -98 rlineto
          402 hlineto
          endchar
        </CharString>
        <CharString name="longs">
          -405 33 callgsubr
          484 112 93 112 hstem
          -98 478 vstem
          -3 -182 rmoveto
          103 42 73 72 13 hvcurveto
          108 613 -75 callsubr
          82 callgsubr
          endchar
        </CharString>
        <CharString name="lozenge">
          -83 597 131 0 -20 hstemhm
          42 484 hintmask 01100000
          145 -133 rmoveto
          127 hlineto
          254 431 -102 430 rlineto
          -127 hlineto
          -255 -430 rlineto
          185 -300 rmoveto
          -61 289 rlineto
          hintmask 10100000
          175 310 61 -288 rlineto
          endchar
        </CharString>
        <CharString name="lslash">
          41 callsubr
          723 -20 hstem
          -22 329 83 callgsubr
          60 344 79 48 18 102 -79 -48 49 277 -79 callsubr
          -65 -371 -79 -48 -18 -102 79 48 rlineto
          endchar
        </CharString>
        <CharString name="m">
          206 21 -21 417 109 -109 121 hstemhm
          690 144 hintmask 10110000
          17 hmoveto
          -21 callgsubr
          51 284 rlineto
          75 13 46 59 callgsubr
          51 284 rlineto
          75 13 45 59 callgsubr
          57 313 rlineto
          6 32 4 27 25 vvcurveto
          102 -59 39 -82 -72 -55 -40 -43 -38 vhcurveto
          -8 hlineto
          58 -18 -48 25 -63 hhcurveto
          -69 -53 -40 -43 -37 hvcurveto
          -7 hlineto
          hintmask 11010000
          87 callsubr
          endchar
        </CharString>
        <CharString name="macron">
          -350 611 88 hstem
          2 320 vstem
          2 611 -58 callsubr
          endchar
        </CharString>
        <CharString name="minus">
          -99 204 104 hstem
          37 491 vstem
          37 204 rmoveto
          472 hlineto
          19 104 rlineto
          -472 hlineto
          endchar
        </CharString>
        <CharString name="minute">
          -443 506 180 hstem
          74 197 vstem
          74 506 49 callgsubr
          endchar
        </CharString>
        <CharString name="multiply">
          -99 35 440 hstem
          47 490 vstem
          111 35 rmoveto
          173 146 116 -142 81 71 -117 141 173 146 -64 78 -173 -146 -117 142 -80 -71 117 -142 -173 -145 rlineto
          endchar
        </CharString>
        <CharString name="n">
          -72 21 52 callsubr
          hintmask 10110000
          17 hmoveto
          -21 callgsubr
          87 callgsubr
          hintmask 11010000
          -97 callsubr
          -71 -65 -38 -45 76 callsubr
          hintmask 10110000
          87 callsubr
          endchar
        </CharString>
        <CharString name="nacute">
          -72 21 11 callgsubr
          85 132 45 callsubr
          hintmask 10111000
          308 591 -100 callsubr
          -393 -723 -3 callgsubr
          87 callgsubr
          hintmask 11011000
          -97 callsubr
          -71 -65 -38 -45 76 callsubr
          hintmask 10111000
          87 callsubr
          endchar
        </CharString>
        <CharString name="nacute.loclPLK">
          -72 21 11 callgsubr
          85 132 45 callsubr
          hintmask 10111000
          299 591 -46 callsubr
          -331 -723 -3 callgsubr
          87 callgsubr
          hintmask 11011000
          -97 callsubr
          -71 -65 -38 -45 76 callsubr
          hintmask 10111000
          87 callsubr
          endchar
        </CharString>
        <CharString name="napostrophe">
          25 21 -21 417 121 -96 84 0 -20 53 127 hstemhm
          509 143 hintmask 00000000
          hintmask 10101100
          22 442 rmoveto
          71 hlineto
          89 129 20 115 -47 callsubr
          -21 -127 rlineto
          52 hlineto
          19 -559 -3 callgsubr
          87 callgsubr
          hintmask 11001100
          -97 callsubr
          -71 -65 -38 -45 76 callsubr
          hintmask 10011100
          87 callsubr
          endchar
        </CharString>
        <CharString name="ncaron">
          -72 21 11 callgsubr
          82 135 45 callsubr
          hintmask 10111000
          302 588 -97 callgsubr
          -203 -723 -3 callgsubr
          87 callgsubr
          hintmask 11011000
          -97 callsubr
          -71 -65 -38 -45 76 callsubr
          hintmask 10111000
          87 callsubr
          endchar
        </CharString>
        <CharString name="ncommaaccent">
          -72 -138 98 61 43 callsubr
          17 hmoveto
          -21 callgsubr
          87 callgsubr
          hintmask 11101000
          -97 callsubr
          -71 -65 -38 -45 76 callsubr
          hintmask 11011000
          87 callsubr
          42 -756 rmoveto
          73 hlineto
          -62 callgsubr
        </CharString>
        <CharString name="nine">
          -12 111 -111 215 44 109 230 112 hstemhm
          22 138 -114 144 200 138 hintmask 00000000
          hintmask 10111010
          224 -12 rmoveto
          145 101 88 283 46 hvcurveto
          8 47 4 41 35 vvcurveto
          161 -84 55 -141 vhcurveto
          hintmask 10110110
          -141 -116 -109 -167 -107 55 -68 125 79 47 45 9 13 hvcurveto
          hintmask 10111010
          -124 -24 -24 -78 -89 hhcurveto
          -47 -21 24 43 hvcurveto
          hintmask 01111010
          11 2 12 2 14 vhcurveto
          -58 callgsubr
          -3 -18 -2 -18 -17 vvcurveto
          hintmask 10111010
          -95 60 -67 142 vhcurveto
          hintmask 10110110
          45 368 rmoveto
          -55 -24 32 50 81 44 67 75 55 26 -34 -49 -87 -49 -60 -72 hvcurveto
          endchar
        </CharString>
        <CharString name="notequal">
          -134 96 103 109 104 hstem
          10 527 vstem
          64 25 rmoveto
          94 hlineto
          51 71 rlineto
          273 hlineto
          18 103 rlineto
          -218 hlineto
          77 109 rlineto
          160 hlineto
          18 104 rlineto
          -105 hlineto
          52 72 rlineto
          -94 hlineto
          -52 -72 rlineto
          -273 hlineto
          -18 -104 rlineto
          218 hlineto
          -77 -109 rlineto
          -160 hlineto
          -18 -103 rlineto
          105 hlineto
          endchar
        </CharString>
        <CharString name="ntilde">
          -72 21 11 callgsubr
          95 85 -48 85 45 callsubr
          hintmask 00000000
          hintmask 10110100
          198 66 callgsubr
          hintmask 10101100
          11 callsubr
          hintmask 10110100
          47 34 -37 50 hhcurveto
          hintmask 10101100
          68 36 57 65 11 hvcurveto
          -70 hlineto
          hintmask 10110100
          -39 callsubr
          -47 -34 37 -51 hhcurveto
          -67 -35 -57 -65 -11 hvcurveto
          hintmask 11001100
          -181 -601 rmoveto
          -57 callsubr
          -71 -65 -38 -45 76 callsubr
          hintmask 10101100
          87 callsubr
          endchar
        </CharString>
        <CharString name="numbersign">
          9 -21 175 108 123 108 196 -20 hstem
          9 535 vstem
          37 -12 rmoveto
          104 hlineto
          35 175 rlineto
          120 hlineto
          -35 -175 rlineto
          104 hlineto
          35 175 rlineto
          98 108 -76 hlineto
          25 123 rlineto
          97 108 -75 100 callsubr
          -120 100 callsubr
          -86 -108 64 hlineto
          -25 -123 rlineto
          -85 -108 63 hlineto
          126 108 rmoveto
          25 123 rlineto
          120 hlineto
          -25 -123 rlineto
          endchar
        </CharString>
        <CharString name="o">
          -59 callgsubr
          hstem
          -49 callsubr
          vstem
          265 -12 -106 callsubr
        </CharString>
        <CharString name="oacute">
          -26 callgsubr
          276 591 -100 callsubr
          -113 -98 callgsubr
        </CharString>
        <CharString name="oacute.loclPLK">
          -26 callgsubr
          267 591 -46 callsubr
          -51 -98 callgsubr
        </CharString>
        <CharString name="obreve">
          -59 callgsubr
          48 93 callgsubr
          hstemhm
          24 133 23 92 158 133 hintmask 00000000
          hintmask 11011110
          331 586 -84 callsubr
          hintmask 11101110
          -38 callsubr
          hintmask 11011110
          -90 callsubr
          hintmask 11011010
          -66 -598 -106 callsubr
        </CharString>
        <CharString name="ocircumflex">
          -59 callgsubr
          50 135 -66 66 -17 callgsubr
          hintmask 11101100
          158 588 -44 callgsubr
          hintmask 11011100
          62 69 rlineto
          hintmask 11101100
          -94 callsubr
          endchar
        </CharString>
        <CharString name="odieresis">
          -59 callgsubr
          67 118 hstem
          -49 callsubr
          vstem
          171 605 -101 callsubr
          -136 -98 callgsubr
        </CharString>
        <CharString name="oe">
          261 -12 106 -106 112 131 91 104 112 -107 107 103 callgsubr
          256 128 227 137 hintmask 01110101
          269 -12 rmoveto
          77 58 27 44 43 hvcurveto
          -49 40 65 -22 91 hhcurveto
          -54 callgsubr
          hintmask 10110111
          46 callsubr
          -11 -38 -31 -63 hhcurveto
          -68 -27 31 60 14 1 15 3 17 hvcurveto
          346 hlineto
          6 32 rlineto
          6 28 2 -65 callsubr
          -80 -60 -29 -45 -44 vhcurveto
          50 -41 -67 24 -92 hhcurveto
          -216 -72 -177 -170 hvcurveto
          hintmask 01110101
          -139 84 -64 167 vhcurveto
          297 334 rmoveto
          hintmask 01101101
          72 21 39 37 70 hhcurveto
          46 29 -22 -53 -10 -1 -12 -2 -12 hvcurveto
          -509 -222 rmoveto
          -70 -29 35 66 16 1 18 7 36 hvcurveto
          hintmask 01110111
          101 21 39 54 88 hhcurveto
          70 30 -35 -66 -16 -2 -18 -6 -36 hvcurveto
          hintmask 01101101
          -101 -16 -44 -54 -89 hhcurveto
          endchar
        </CharString>
        <CharString name="ogonek">
          -350 -182 69 -69 194 hstemhm
          69 112 hintmask 10100000
          161 3 callgsubr
        </CharString>
        <CharString name="ograve">
          -26 callgsubr
          281 591 -78 callgsubr
          69 -732 -106 callsubr
        </CharString>
        <CharString name="ohorn">
          -59 callgsubr
          11 137 26 callsubr
          hintmask 11111000
          540 686 -51 callsubr
          hintmask 11011000
          -82 callgsubr
          hintmask 11111000
          -66 callgsubr
          hintmask 11011000
          13 108 49 52 88 -1 74 1 44 -42 1 -68 rrcurveto
          hintmask 11111000
          60 callsubr
        </CharString>
        <CharString name="ohungarumlaut">
          -26 callgsubr
          188 591 -51 callgsubr
          -203 -98 callgsubr
        </CharString>
        <CharString name="omacron">
          -59 callgsubr
          73 88 hstem
          -49 callsubr
          vstem
          184 611 -58 callsubr
          66 -711 -106 callsubr
        </CharString>
        <CharString name="one">
          0 112 408 85 81 -20 hstem
          24 465 vstem
          24 hmoveto
          445 hlineto
          20 112 rlineto
          -147 hlineto
          101 574 rlineto
          -71 hlineto
          -76 -40 -105 -35 -61 -6 -15 -85 rcurveline
          162 hlineto
          -72 -408 rlineto
          -161 hlineto
          endchar
        </CharString>
        <CharString name="oneeighth">
          69 callsubr
          -33 75 186 55 41 -20 32 -20 hstemhm
          496 79 callsubr
          hintmask 1101101101000000
          54 16 callsubr
          -671 -369 38 callsubr
          hintmask 1101110101000000
          50 282 rlineto
          -43 hlineto
          -39 -20 -56 -18 -34 -3 -10 -55 rcurveline
          82 hlineto
          -33 -186 rlineto
          -82 hlineto
          553 -416 35 callsubr
          hintmask 1110101010100000
          -6 callgsubr
          hintmask 1101101101000000
          -49 -20 -22 -36 -44 vvcurveto
          hintmask 1101110101000000
          -53 35 -40 89 vhcurveto
          hintmask 1110101010100000
          -11 callsubr
          hintmask 1101101101000000
          -15 callsubr
        </CharString>
        <CharString name="onehalf">
          151 0 75 -66 -21 312 69 -39 79 callgsubr
          520 63 callgsubr
          hintmask 0000000000000000
          hintmask 0101101110000000
          39 16 callsubr
          -661 -368 38 callsubr
          hintmask 1001110110000000
          -16 callsubr
          410 -405 72 callsubr
          hintmask 1010101110000000
          -31 callsubr
          endchar
        </CharString>
        <CharString name="onequarter">
          151 9 -21 83 69 190 79 callgsubr
          38 767 hintmask 11110110
          38 16 callsubr
          -661 -368 38 callsubr
          hintmask 11111010
          -16 callsubr
          543 -404 -3 callsubr
        </CharString>
        <CharString name="ordfeminine">
          -313 403 73 191 62 -62 70 -45 -20 hstemhm
          61 86 hintmask 10011000
          344 488 rmoveto
          hintmask 11001000
          3 1 9 41 229 vhcurveto
          -70 hlineto
          hintmask 10011000
          -19 -37 rlineto
          -4 hlineto
          hintmask 10101000
          29 -18 -28 16 -44 hhcurveto
          -102 -40 -123 -85 -83 42 -43 62 37 35 18 32 23 hvcurveto
          4 hlineto
          -30 3 20 -20 32 hhcurveto
          23 17 6 4 10 hvcurveto
          10 58 rlineto
          -18 hlineto
          hintmask 10011000
          -9 -8 5 12 hvcurveto
          -147 -12 rmoveto
          -35 -15 20 38 hvcurveto
          hintmask 11001000
          46 15 87 66 33 18 -21 -40 vhcurveto
          hintmask 10011000
          -44 -19 -86 -63 vhcurveto
          endchar
        </CharString>
        <CharString name="ordmasculine">
          -318 404 68 197 68 hstem
          58 86 161 87 vstem
          213 404 rmoveto
          133 46 106 103 85 -52 39 -105 -133 -44 -107 -103 -84 51 -39 104 hvcurveto
          -6 68 rmoveto
          -44 -19 21 40 10 1 11 4 21 hvcurveto
          61 11 26 33 55 hhcurveto
          45 19 -21 -40 -10 -1 -11 -4 -21 hvcurveto
          -61 -10 -27 -33 -56 hhcurveto
          endchar
        </CharString>
        <CharString name="orthogonal">
          296 0 89 hstem
          121 641 vstem
          121 hmoveto
          625 hlineto
          16 89 rlineto
          -536 hlineto
          95 536 rlineto
          -89 hlineto
          endchar
        </CharString>
        <CharString name="oslash">
          -59 callgsubr
          hstem
          18 142 266 143 vstem
          -22 -49 -50 callgsubr
        </CharString>
        <CharString name="oslashacute">
          -59 callgsubr
          53 132 hstem
          18 142 266 143 vstem
          283 591 -100 callsubr
          -407 -772 -50 callgsubr
        </CharString>
        <CharString name="otilde">
          -59 callgsubr
          63 85 -48 85 26 callsubr
          hintmask 11101100
          166 66 callgsubr
          hintmask 11011100
          11 callsubr
          hintmask 11101100
          47 34 -37 50 hhcurveto
          hintmask 11011100
          68 36 57 65 11 hvcurveto
          -70 hlineto
          hintmask 11101100
          -39 callsubr
          -47 -34 37 -51 hhcurveto
          -67 -35 -57 -65 -11 hvcurveto
          hintmask 11011100
          99 -613 -106 callsubr
        </CharString>
        <CharString name="p">
          -72 -152 -21 161 115 316 107 -107 119 hstemhm
          427 142 hintmask 11011000
          31 callsubr
          -71 64 -119 -59 -56 -31 -50 -39 hvcurveto
          -7 hlineto
          hintmask 11101000
          69 -114 vlineto
          176 -423 rmoveto
          -59 -32 34 67 hvcurveto
          hintmask 11011000
          106 callgsubr
          vhcurveto
          hintmask 11101000
          -75 -22 -144 -125 vhcurveto
          endchar
        </CharString>
        <CharString name="paragraph">
          625 61 hstem
          40 553 vstem
          147 -168 rmoveto
          84 hlineto
          140 793 rlineto
          66 hlineto
          -140 -793 rlineto
          84 hlineto
          140 793 rlineto
          61 hlineto
          11 61 rlineto
          -286 hlineto
          -155 -112 -100 -156 -119 83 -58 98 hvcurveto
          endchar
        </CharString>
        <CharString name="parenleft">
          -350 736 -20 hstem
          39 124 vstem
          138 -157 rmoveto
          88 hlineto
          -39 88 -24 114 115 vvcurveto
          201 94 214 126 161 vhcurveto
          -92 hlineto
          -157 -150 -95 -206 -201 vvcurveto
          -124 34 -116 65 -96 vhcurveto
          endchar
        </CharString>
        <CharString name="parenright">
          -350 736 -20 hstem
          147 124 vstem
          -73 -157 rmoveto
          92 hlineto
          157 150 95 206 201 vvcurveto
          124 -34 116 -65 96 vhcurveto
          -88 hlineto
          39 -88 24 -114 -115 vvcurveto
          -201 -94 -214 -126 -161 vhcurveto
          endchar
        </CharString>
        <CharString name="partialdiff">
          -189 -12 102 262 97 187 99 hstem
          2 125 224 118 vstem
          170 -12 rmoveto
          137 103 150 185 40 hvcurveto
          13 56 6 58 59 vvcurveto
          168 -90 71 -103 -52 -40 -13 -16 -31 vhcurveto
          -18 -104 rlineto
          18 28 37 16 47 hhcurveto
          71 33 -44 -111 -28 -3 -49 -10 -20 hvcurveto
          -4 hlineto
          24 -9 -36 41 -70 hhcurveto
          -95 -122 -115 -183 -92 53 -71 115 hvcurveto
          5 102 rmoveto
          -32 -16 28 44 97 63 93 55 44 21 -40 -33 3 hvcurveto
          -97 -24 -55 -92 -59 hhcurveto
          endchar
        </CharString>
        <CharString name="percent">
          206 -12 81 -48 -21 268 81 -12 81 199 81 -12 -20 hstemhm
          70 104 137 104 58 104 137 104 hintmask 1001101111000000
          226 337 13 callsubr
          hintmask 0101011111000000
          -145 -337 rmoveto
          102 hlineto
          628 686 rlineto
          -104 hlineto
          -482 -268 rmoveto
          -38 -13 21 34 hvcurveto
          hintmask 1001101111000000
          11 1 12 6 29 vhcurveto
          75 callsubr
          hintmask 0101011111000000
          -54 -11 -15 -38 -53 hhcurveto
          hintmask 1010101111000000
          404 -430 13 callsubr
          -1 81 rmoveto
          -38 -13 21 34 11 1 12 6 29 hvcurveto
          75 callsubr
          -54 -11 -15 -38 -53 hhcurveto
          endchar
        </CharString>
        <CharString name="period">
          -405 0 137 hstem
          14 163 vstem
          14 hmoveto
          -8 callgsubr
          endchar
        </CharString>
        <CharString name="periodcentered">
          -350 289 137 hstem
          91 163 vstem
          91 289 rmoveto
          -8 callgsubr
          endchar
        </CharString>
        <CharString name="perthousand">
          317 -11 81 -49 -21 269 81 -13 81 199 81 -12 -20 hstemhm
          42 104 91 104 -3 104 91 104 19 104 91 104 hintmask 0000000000000000
          hintmask 0101101100000000
          175 337 rmoveto
          -19 callsubr
          -129 -337 rmoveto
          88 hlineto
          hintmask 0001011000000000
          499 686 rlineto
          -90 hlineto
          -369 -268 rmoveto
          -21 -7 16 26 hvcurveto
          hintmask 0001101100000000
          14 1 17 7 34 vhcurveto
          30 callsubr
          hintmask 0001011000000000
          -55 -10 -12 -37 -33 hhcurveto
          hintmask 1010000011000000
          297 -429 rmoveto
          -19 callsubr
          hintmask 1010000010110000
          318 hmoveto
          -19 callsubr
          -319 81 rmoveto
          108 callgsubr
          hintmask 1010000001000000
          30 callsubr
          hintmask 1010000010110000
          -55 -10 -12 -37 -33 hhcurveto
          318 hmoveto
          108 callgsubr
          30 callsubr
          -55 -10 -12 -37 -33 hhcurveto
          endchar
        </CharString>
        <CharString name="peseta">
          411 -12 106 -106 179 -146 -21 236 123 13 166 -124 112 -94 106 25 123 hstemhm
          456 137 43 127 -80 137 74 137 -101 129 hintmask 1001010110110000
          563 -12 rmoveto
          25 31 7 9 17 hvcurveto
          11 62 rlineto
          -49 23 61 -29 91 hhcurveto
          105 104 46 142 hvcurveto
          hintmask 1001001110110000
          172 -211 -49 83 vvcurveto
          32 27 18 33 vhcurveto
          hintmask 1001001110101000
          30 20 -15 -30 hvcurveto
          hintmask 1001100110101000
          -5 0 -5 -1 -5 vhcurveto
          123 hlineto
          1 5 6 25 18 vvcurveto
          75 -73 43 -103 vhcurveto
          hintmask 0011010110110000
          -30 -27 -4 -8 -26 hvcurveto
          -138 102 callgsubr
          -137 hlineto
          -25 -148 rlineto
          -32 hlineto
          106 -18 -60 54 -144 hhcurveto
          -151 hlineto
          -121 -686 rlineto
          143 hlineto
          42 236 rlineto
          27 hlineto
          159 74 67 111 35 hvcurveto
          23 hlineto
          -44 -248 rlineto
          hintmask 1001010110110000
          -6 -32 -4 -35 -11 vvcurveto
          -55 26 -45 81 vhcurveto
          -350 371 rmoveto
          36 204 rlineto
          19 hlineto
          61 31 -28 -48 -78 -51 -50 -67 hvcurveto
          hintmask 1001010111010000
          583 -265 rmoveto
          -31 -31 13 40 hvcurveto
          hintmask 0101010111010000
          4 0 4 3 12 vhcurveto
          -123 hlineto
          -4 -8 -3 -22 -14 vvcurveto
          -8 1 -7 1 -8 vhcurveto
          -8 hlineto
          -24 -13 11 17 5 2 17 3 15 hvcurveto
          hintmask 1001010110110000
          44 249 rlineto
          54 hlineto
          -7 -14 -6 -22 -16 -169 211 47 -90 vvcurveto
          hintmask 1001010111010000
          -44 -42 -12 -27 vhcurveto
          endchar
        </CharString>
        <CharString name="pi">
          83 21 -21 414 112 hstem
          441 136 vstem
          44 hmoveto
          142 hlineto
          54 81 70 216 30 117 rrcurveto
          160 hlineto
          -47 -267 rlineto
          -8 -48 -4 -37 -26 vvcurveto
          -17 2 -13 3 -6 vhcurveto
          134 hlineto
          -2 9 -1 11 13 vvcurveto
          28 5 39 10 56 vhcurveto
          45 258 rlineto
          104 hlineto
          30 112 rlineto
          -503 hlineto
          -108 -64 -11 -19 -36 hvcurveto
          -95 vlineto
          9 30 30 4 78 hhcurveto
          -25 -117 -70 -199 -59 -98 rrcurveto
          endchar
        </CharString>
        <CharString name="plus">
          -99 21 -21 203 104 hstem
          41 491 vstem
          187 hmoveto
          107 hlineto
          36 25 callsubr
          endchar
        </CharString>
        <CharString name="plusminus">
          -134 0 104 248 104 hstem
          -19 552 vstem
          189 149 rmoveto
          107 hlineto
          35 25 callsubr
          -243 -352 rmoveto
          471 hlineto
          19 104 rlineto
          -471 hlineto
          endchar
        </CharString>
        <CharString name="product">
          140 598 125 hstem
          44 803 vstem
          44 -128 rmoveto
          145 hlineto
          128 726 rlineto
          272 hlineto
          -128 -726 rlineto
          144 hlineto
          128 726 rlineto
          91 hlineto
          23 125 rlineto
          -741 hlineto
          -23 -125 rlineto
          89 hlineto
          endchar
        </CharString>
        <CharString name="q">
          -72 -152 -21 161 -36 callsubr
          103 callgsubr
          hintmask 11101000
          315 -173 -3 callgsubr
          hintmask 11011000
          123 699 rlineto
          -117 hlineto
          hintmask 11101000
          -21 -69 rlineto
          -7 hlineto
          54 -26 -56 27 -74 hhcurveto
          -190 -66 -202 -141 -142 74 -65 108 63 52 26 47 35 hvcurveto
          6 hlineto
          -106 46 rmoveto
          -63 -27 34 63 75 27 144 120 59 32 -34 -67 -73 -35 -142 105 callgsubr
        </CharString>
        <CharString name="question">
          -72 0 137 440 121 hstem
          73 139 204 154 vstem
          201 197 rmoveto
          125 hlineto
          5 28 rlineto
          22 118 217 13 179 vvcurveto
          108 -81 55 -147 -151 -118 -90 -149 vhcurveto
          139 hlineto
          61 40 57 79 72 13 -32 -25 -94 -178 1 -30 -187 vhcurveto
          -44 -240 -15 callgsubr
          endchar
        </CharString>
        <CharString name="questiondown">
          -72 -172 121 440 137 hstem
          40 154 204 139 vstem
          284 389 -15 callgsubr
          -40 -698 rmoveto
          151 118 90 149 hvcurveto
          -139 hlineto
          -61 -40 -57 -79 -72 -13 32 25 94 178 -1 30 187 vhcurveto
          7 43 rlineto
          -125 hlineto
          -5 -28 rlineto
          -22 -118 -217 -13 -179 vvcurveto
          -108 81 -55 147 vhcurveto
          endchar
        </CharString>
        <CharString name="quotedbl">
          -209 407 279 hstem
          89 395 vstem
          89 407 26 callgsubr
          220 -132 26 callgsubr
          endchar
        </CharString>
        <CharString name="quotedblbase">
          -183 0 137 hstem
          -13 413 vstem
          -13 -156 -52 callsubr
          141 -156 -52 callsubr
          endchar
        </CharString>
        <CharString name="quotedblleft">
          -183 393 137 156 -20 hstem
          81 413 vstem
          81 393 12 callsubr
          201 -125 12 callsubr
          endchar
        </CharString>
        <CharString name="quotedblright">
          -183 549 137 hstem
          71 413 vstem
          71 393 -52 callsubr
          141 -156 -52 callsubr
          endchar
        </CharString>
        <CharString name="quoteleft">
          -405 393 137 156 -20 hstem
          81 190 vstem
          81 393 12 callsubr
          endchar
        </CharString>
        <CharString name="quotereversed">
          -405 549 137 hstem
          106 160 vstem
          143 393 rmoveto
          72 hlineto
          -28 156 rlineto
          55 hlineto
          24 137 -47 callsubr
          -22 -125 rlineto
          endchar
        </CharString>
        <CharString name="quoteright">
          -405 549 137 hstem
          71 190 vstem
          71 393 -52 callsubr
          endchar
        </CharString>
        <CharString name="quotesinglbase">
          -405 0 137 hstem
          -13 190 vstem
          -13 -156 -52 callsubr
          endchar
        </CharString>
        <CharString name="quotesingle">
          -445 407 279 hstemhm
          89 175 hintmask 00000000
          hintmask 11000000
          89 407 26 callgsubr
          endchar
        </CharString>
        <CharString name="r">
          1 callgsubr
          hstemhm
          17 395 hintmask 10101000
          17 hmoveto
          34 callsubr
          hintmask 10011000
          22 128 rlineto
          hintmask 10101000
          -12 callsubr
          hintmask 11001000
          85 -113 vlineto
          endchar
        </CharString>
        <CharString name="racute">
          1 callgsubr
          82 132 hstemhm
          17 421 hintmask 10101100
          197 591 -100 callsubr
          -282 -723 -35 callgsubr
        </CharString>
        <CharString name="radical">
          -134 -148 1005 hstem
          24 612 vstem
          197 -148 rmoveto
          100 hlineto
          339 1005 rlineto
          -79 hlineto
          -277 -835 -7 39 -8 39 -7 39 rlinecurve
          -49 256 -185 -72 13 -80 74 26 rlineto
          endchar
        </CharString>
        <CharString name="rcaron">
          1 callgsubr
          79 135 hstemhm
          17 424 hintmask 10101100
          191 588 -97 callgsubr
          -92 -723 -35 callgsubr
        </CharString>
        <CharString name="rcommaaccent">
          -294 -138 98 61 6 callsubr
          hstemhm
          -22 434 2 callsubr
          -132 -756 rmoveto
          73 hlineto
          -62 callgsubr
        </CharString>
        <CharString name="registered">
          54 -12 62 244 67 124 66 85 62 hstem
          13 64 143 78 164 79 118 -28 callgsubr
          -148 88 rmoveto
          78 156 99 hlineto
          78 -156 rlineto
          84 hlineto
          -87 170 rlineto
          47 21 22 42 54 vvcurveto
          75 -43 51 -86 vhcurveto
          -192 hlineto
          78 -190 rmoveto
          124 104 vlineto
          38 22 -21 -39 -41 -25 -23 -35 hvcurveto
          endchar
        </CharString>
        <CharString name="revlogicalnot">
          -99 357 98 hstem
          18 547 vstem
          18 193 rmoveto
          98 hlineto
          29 164 rlineto
          402 hlineto
          18 98 rlineto
          -500 hlineto
          endchar
        </CharString>
        <CharString name="ring">
          -350 556 57 88 57 hstem
          65 58 90 57 vstem
          155 556 -48 callgsubr
          endchar
        </CharString>
        <CharString name="s">
          -12 106 338 106 -32 callsubr
          hintmask 00000000
          hintmask 11101000
          94 callsubr
          hintmask 11011000
          -22 callgsubr
          hintmask 11010100
          49 32 -16 -34 hvcurveto
          -1 -10 rlineto
          133 hlineto
          0 7 21 23 vvcurveto
          77 -91 45 -125 -134 -108 -60 -121 vhcurveto
          hintmask 11011000
          -23 callsubr
          hintmask 11101000
          40 callsubr
        </CharString>
        <CharString name="sacute">
          -12 106 338 106 53 132 -32 callsubr
          hintmask 11101100
          258 591 -100 callsubr
          hintmask 11110100
          -123 -735 -83 callsubr
          endchar
        </CharString>
        <CharString name="sacute.loclPLK">
          -12 106 338 106 53 132 -32 callsubr
          hintmask 11101100
          249 591 -46 callsubr
          hintmask 11110100
          -61 -735 -83 callsubr
          endchar
        </CharString>
        <CharString name="scaron">
          -12 106 338 106 50 135 -32 callsubr
          hintmask 11101100
          252 588 -97 callgsubr
          hintmask 11110100
          67 -735 -83 callsubr
          endchar
        </CharString>
        <CharString name="scedilla">
          50 callsubr
          45 -21 441 106 hstemhm
          8 137 -87 141 42 108 0 142 -114 139 hintmask 0000000000000000
          hintmask 1001101001000000
          509 372 rmoveto
          0 7 21 23 vvcurveto
          77 -91 45 -125 -134 -108 -60 -121 vhcurveto
          hintmask 1011101010000000
          -23 callsubr
          hintmask 1011110010000000
          -48 -48 14 44 3 1 7 2 5 hvcurveto
          -133 hlineto
          0 -7 -16 -23 vvcurveto
          hintmask 1001110010000000
          -74 63 -52 113 -11 vhcurveto
          hintmask 1011101100000000
          -22 -68 -25 callsubr
          hintmask 0101101010000000
          -9 -49 rlineto
          hintmask 1011101100000000
          -9 callsubr
          7 22 rlineto
          hintmask 1001101010000000
          118 7 104 51 133 -22 callgsubr
          hintmask 1001101001000000
          49 32 -16 -34 hvcurveto
          -1 -10 rlineto
          endchar
        </CharString>
        <CharString name="scircumflex">
          -12 106 338 106 50 135 -66 66 -32 callsubr
          hintmask 11100110
          140 588 -44 callgsubr
          hintmask 11010110
          62 69 rlineto
          hintmask 11101010
          -100 callgsubr
          -31 -735 rmoveto
          131 123 47 145 hvcurveto
          hintmask 11100110
          -22 callgsubr
          hintmask 11100101
          49 32 -16 -34 hvcurveto
          -1 -10 rlineto
          133 hlineto
          0 7 21 23 vvcurveto
          77 -91 45 -125 -134 -108 -60 -121 vhcurveto
          hintmask 11100110
          -23 callsubr
          hintmask 11101010
          40 callsubr
        </CharString>
        <CharString name="scommaaccent">
          -138 98 28 106 338 106 -32 callsubr
          hintmask 00000000
          hintmask 01110100
          94 callsubr
          hintmask 01101100
          -22 callgsubr
          hintmask 01101010
          49 32 -16 -34 hvcurveto
          -1 -10 rlineto
          133 hlineto
          0 7 21 23 vvcurveto
          77 -91 45 -125 -134 -108 -60 -121 vhcurveto
          hintmask 01101100
          -23 callsubr
          hintmask 01110100
          -48 -48 14 44 3 1 7 2 5 hvcurveto
          -133 hlineto
          0 -7 -16 -23 vvcurveto
          -85 82 -55 147 vhcurveto
          -113 -218 rmoveto
          73 hlineto
          hintmask 11101100
          -62 callgsubr
        </CharString>
        <CharString name="second">
          -204 506 180 hstem
          74 398 vstem
          74 506 49 callgsubr
          135 -180 49 callgsubr
          endchar
        </CharString>
        <CharString name="section">
          -182 106 -106 166 548 166 -108 108 hstemhm
          -6 145 -107 139 -76 141 65 141 -77 139 -106 145 hintmask 0000000000000000
          hintmask 1001100100000000
          205 -182 rmoveto
          128 109 60 122 42 -18 32 -28 25 hvcurveto
          hintmask 1001001010000000
          70 38 38 56 59 171 -268 14 91 vvcurveto
          38 39 24 53 vhcurveto
          hintmask 1001010001000000
          44 26 -15 -31 hvcurveto
          hintmask 1010010001000000
          -4 0 -4 -1 -4 vhcurveto
          139 hlineto
          2 7 5 21 16 vvcurveto
          hintmask 1001001001000000
          77 -89 45 -122 -129 -108 -58 -117 -47 18 -34 28 -25 vhcurveto
          hintmask 1001010100000000
          -72 -43 -37 -57 -61 -166 269 -14 -88 vvcurveto
          -39 -41 -25 -51 vhcurveto
          hintmask 1001100010000000
          -44 -26 15 33 hvcurveto
          hintmask 0101100010000000
          3 0 5 1 4 vhcurveto
          -139 hlineto
          -1 -5 -6 -22 -16 vvcurveto
          hintmask 1001100100000000
          -78 88 -45 123 vhcurveto
          hintmask 1001010010000000
          115 330 rmoveto
          -73 31 -76 31 67 vvcurveto
          36 16 28 29 26 vhcurveto
          73 -35 76 -27 -67 vvcurveto
          -36 -16 -29 -29 -25 vhcurveto
          endchar
        </CharString>
        <CharString name="semicolon">
          -350 0 137 252 137 hstem
          11 259 vstem
          107 389 rmoveto
          -8 callgsubr
          -121 -682 -52 callsubr
          endchar
        </CharString>
        <CharString name="seven">
          21 -21 564 122 hstem
          68 520 vstem
          68 hmoveto
          165 hlineto
          3 24 2 8 3 19 37 210 160 198 134 136 16 91 rcurveline
          -493 hlineto
          -22 -122 rlineto
          325 hlineto
          -147 -139 -144 -205 -39 -220 rrcurveto
          endchar
        </CharString>
        <CharString name="seveneighths">
          69 callsubr
          250 74 12 -20 hstemhm
          467 79 callsubr
          hintmask 1111010100000000
          15 -12 rmoveto
          96 hlineto
          hintmask 1110110100000000
          18 callgsubr
          -582 -374 rmoveto
          96 hlineto
          hintmask 1111010100000000
          6 109 91 116 78 81 10 56 rcurveline
          -263 hlineto
          -13 -74 rlineto
          161 hlineto
          hintmask 1110110100000000
          -75 -72 -72 -102 -19 -114 rrcurveto
          hintmask 1111010100000000
          487 -336 35 callsubr
          hintmask 1111001010000000
          -6 callgsubr
          hintmask 1111010100000000
          62 callsubr
          hintmask 1111001010000000
          -11 callsubr
          hintmask 1111010100000000
          -15 callsubr
        </CharString>
        <CharString name="six">
          -12 112 230 109 44 215 -111 111 hstemhm
          27 138 200 144 -114 138 hintmask 11011100
          252 -12 rmoveto
          141 116 109 167 107 -55 68 -125 -79 -47 -45 -9 -13 hvcurveto
          hintmask 11011010
          124 24 24 78 89 hhcurveto
          47 21 -24 -43 hvcurveto
          hintmask 11101010
          -11 -2 -12 -2 -14 vhcurveto
          -21 callgsubr
          3 18 2 18 17 vvcurveto
          hintmask 11011010
          95 -60 67 -142 -145 -101 -88 -283 -46 vhcurveto
          -8 -47 -4 -41 -35 vvcurveto
          hintmask 11011100
          -161 84 -55 141 vhcurveto
          -6 112 rmoveto
          -55 -26 34 49 87 49 60 72 55 24 -32 -50 -81 -44 -67 -75 hvcurveto
          endchar
        </CharString>
        <CharString name="slash">
          -405 735 -20 hstem
          -68 414 vstem
          -68 -49 rmoveto
          95 hlineto
          319 784 rlineto
          -95 hlineto
          endchar
        </CharString>
        <CharString name="space">
          -405 endchar
        </CharString>
        <CharString name="sterling">
          0 112 170 112 192 59 callsubr
          42 170 rlineto
          158 hlineto
          19 112 rlineto
          -156 hlineto
          21 118 rlineto
          44 8 36 30 50 hhcurveto
          45 26 -23 -39 -5 0 -5 -4 -23 hvcurveto
          136 hlineto
          5 25 1 10 22 vvcurveto
          100 -80 50 -129 -128 -82 -66 -133 -24 vhcurveto
          -19 -105 rlineto
          -75 hlineto
          -18 -112 rlineto
          74 hlineto
          -30 -170 rlineto
          -61 hlineto
          endchar
        </CharString>
        <CharString name="summation">
          30 -128 125 601 125 -114 114 hstemhm
          -38 762 hintmask 11010000
          -38 -128 rmoveto
          630 hlineto
          23 125 rlineto
          -436 4 hlineto
          322 314 -215 279 rlineto
          4 415 vlineto
          23 125 rlineto
          -602 hlineto
          hintmask 10110000
          -21 -114 229 -298 -351 -339 rlineto
          endchar
        </CharString>
        <CharString name="t">
          -350 -12 51 callsubr
          hintmask 11100000
          161 -12 -76 callsubr
          endchar
        </CharString>
        <CharString name="tbar">
          -350 -12 112 154 71 89 112 hstemhm
          -2 338 -301 141 hintmask 11110000
          316 414 rmoveto
          20 112 rlineto
          -91 102 callgsubr
          hintmask 11101000
          -144 hlineto
          -26 -148 rlineto
          -63 hlineto
          -20 -112 rlineto
          63 hlineto
          -16 -89 rlineto
          -63 hlineto
          -11 -71 rlineto
          62 hlineto
          -12 -69 64 callsubr
          -56 29 -49 97 26 36 8 8 21 vhcurveto
          17 96 rlineto
          -48 hlineto
          -24 -13 11 18 8 4 22 2 11 hvcurveto
          15 84 rlineto
          91 hlineto
          12 71 rlineto
          -91 hlineto
          16 89 rlineto
          endchar
        </CharString>
        <CharString name="tcaron">
          -204 -12 112 314 112 -84 84 33 115 -115 127 hstemhm
          25 524 -514 141 hintmask 00000000
          hintmask 10101100
          368 442 rmoveto
          72 hlineto
          89 129 16 callgsubr
          53 hlineto
          hintmask 11010010
          -281 -571 -76 callsubr
          endchar
        </CharString>
        <CharString name="thorn">
          -72 -152 -21 161 115 316 119 hstem
          427 142 vstem
          31 callsubr
          -69 64 -116 -57 -55 -30 -43 -35 hvcurveto
          -7 hlineto
          48 272 -79 callsubr
          139 -634 rmoveto
          -59 -32 34 67 106 callgsubr
          -75 -22 -144 -125 hvcurveto
          endchar
        </CharString>
        <CharString name="three">
          -12 112 193 112 181 112 hstemhm
          4 140 210 140 -100 143 hintmask 11111000
          237 -12 rmoveto
          141 116 86 138 74 -40 46 -56 20 hvcurveto
          1 4 rlineto
          hintmask 11110100
          74 30 64 52 99 vvcurveto
          104 -82 57 -129 -126 -104 -74 -114 -19 vhcurveto
          -5 -28 rlineto
          139 hlineto
          3 19 rlineto
          57 9 42 28 55 hhcurveto
          45 29 -19 -43 -81 -57 -38 -56 hvcurveto
          -54 hlineto
          -19 -112 rlineto
          hintmask 11111000
          51 hlineto
          51 44 -15 -58 -83 -54 -37 -65 -59 -32 24 45 7 0 7 5 29 hvcurveto
          -139 hlineto
          -6 -32 0 -14 -13 vvcurveto
          -101 78 -64 155 vhcurveto
          endchar
        </CharString>
        <CharString name="threeeighths">
          69 callsubr
          -37 78 callgsubr
          51 102 callsubr
          149 79 callsubr
          hintmask 1101101110101000
          38 16 callsubr
          -534 -373 15 callgsubr
          1 4 rlineto
          hintmask 1101101101101000
          7 callsubr
          hintmask 1101110101101000
          -2 -12 rlineto
          83 hlineto
          1 4 rlineto
          hintmask 1101101101101000
          29 7 17 13 17 callgsubr
          hintmask 1101101110101000
          -28 callsubr
          433 -337 35 callsubr
          hintmask 1110101110010100
          -6 callgsubr
          hintmask 1101101110101000
          62 callsubr
          hintmask 1110101110010100
          -11 callsubr
          hintmask 1101101110101000
          -15 callsubr
        </CharString>
        <CharString name="threequarters">
          151 9 -21 83 69 185 78 callgsubr
          61 102 callsubr
          hintmask 1111011100000000
          42 16 callsubr
          -528 -373 15 callgsubr
          1 4 rlineto
          hintmask 1111011010000000
          7 callsubr
          hintmask 1111101010000000
          -2 -12 rlineto
          83 hlineto
          1 4 rlineto
          hintmask 1111011010000000
          29 7 17 13 17 callgsubr
          hintmask 1111011100000000
          -28 callsubr
          423 -324 -3 callsubr
        </CharString>
        <CharString name="tilde">
          -350 601 93 callsubr
          -11 356 hintmask 00000000
          hintmask 10100000
          -11 66 callgsubr
          hintmask 01100000
          11 callsubr
          hintmask 10100000
          47 34 -37 50 hhcurveto
          hintmask 01100000
          68 36 57 65 11 hvcurveto
          -70 hlineto
          hintmask 10100000
          -39 callsubr
          -47 -34 37 -51 hhcurveto
          -67 -35 -57 -65 -11 hvcurveto
          endchar
        </CharString>
        <CharString name="trademark">
          317 279 106 228 73 hstem
          113 835 vstem
          193 280 rmoveto
          77 hlineto
          59 333 rlineto
          138 hlineto
          12 73 rlineto
          -354 hlineto
          -12 -73 rlineto
          139 hlineto
          198 -334 rmoveto
          71 hlineto
          52 300 rlineto
          2 hlineto
          49 -300 rlineto
          72 hlineto
          156 302 rlineto
          1 hlineto
          -53 -302 rlineto
          77 hlineto
          71 407 rlineto
          -116 hlineto
          -153 -301 rlineto
          -4 hlineto
          -45 301 rlineto
          -109 hlineto
          endchar
        </CharString>
        <CharString name="two">
          0 122 464 112 hstem
          408 140 vstem
          -18 hmoveto
          479 hlineto
          21 122 rlineto
          -291 hlineto
          7 10 12 11 14 11 rrcurveto
          97 73 227 91 209 vvcurveto
          68 -30 103 -182 -125 -125 -60 -188 -15 vhcurveto
          136 hlineto
          8 41 rlineto
          66 13 37 29 65 hhcurveto
          55 23 -33 -34 -184 -381 -63 -39 -236 hvcurveto
          endchar
        </CharString>
        <CharString name="u">
          -55 callsubr
          41 callgsubr
          hintmask 00000000
          hintmask 10110000
          187 -12 -55 callgsubr
          hintmask 01110000
          -69 callgsubr
          hintmask 10110000
          -103 callsubr
          vhcurveto
          endchar
        </CharString>
        <CharString name="uacute">
          -1 callgsubr
          295 591 -100 callsubr
          hintmask 10111000
          -210 17 callsubr
          hintmask 01111000
          -69 callgsubr
          hintmask 10111000
          -103 callsubr
          vhcurveto
          endchar
        </CharString>
        <CharString name="ubreve">
          -55 callsubr
          80 89 -89 137 41 callgsubr
          19 92 hintmask 00000000
          hintmask 01101110
          350 586 -84 callsubr
          hintmask 01110110
          -38 callsubr
          hintmask 01101110
          -90 callsubr
          hintmask 10101100
          -163 -598 -55 callgsubr
          hintmask 01101100
          -69 callgsubr
          hintmask 10101100
          -103 callsubr
          vhcurveto
          endchar
        </CharString>
        <CharString name="ucircumflex">
          -55 callsubr
          82 135 -66 66 41 callgsubr
          hintmask 01110100
          177 588 -44 callgsubr
          hintmask 01101100
          62 69 rlineto
          hintmask 10110100
          -100 callgsubr
          -118 17 callsubr
          hintmask 01110100
          -69 callgsubr
          hintmask 10110100
          -103 callsubr
          vhcurveto
          endchar
        </CharString>
        <CharString name="udieresis">
          -55 callsubr
          99 118 41 callgsubr
          hintmask 01111000
          190 605 -101 callsubr
          hintmask 10111000
          20 callsubr
          hintmask 01111000
          -69 callgsubr
          hintmask 10111000
          -103 callsubr
          vhcurveto
          endchar
        </CharString>
        <CharString name="ugrave">
          -1 callgsubr
          300 591 -78 callgsubr
          hintmask 10111000
          -28 -732 -55 callgsubr
          hintmask 01111000
          -69 callgsubr
          hintmask 10111000
          -103 callsubr
          vhcurveto
          endchar
        </CharString>
        <CharString name="uhorn">
          -55 callsubr
          80 137 41 callgsubr
          hintmask 01111000
          585 723 -26 callsubr
          hintmask 10111000
          -103 callsubr
          71 65 38 45 37 vhcurveto
          7 hlineto
          hintmask 01111000
          -33 callgsubr
          endchar
        </CharString>
        <CharString name="uhungarumlaut">
          -1 callgsubr
          207 591 -51 callgsubr
          hintmask 10111000
          -300 17 callsubr
          hintmask 01111000
          -69 callgsubr
          hintmask 10111000
          -103 callsubr
          vhcurveto
          endchar
        </CharString>
        <CharString name="umacron">
          -55 callsubr
          105 88 41 callgsubr
          hintmask 01111000
          203 611 -58 callsubr
          hintmask 10111000
          -31 -711 -55 callgsubr
          hintmask 01111000
          -69 callgsubr
          hintmask 10111000
          -103 callsubr
          vhcurveto
          endchar
        </CharString>
        <CharString name="underscore">
          -160 98 hstem
          -78 572 vstem
          -78 -160 95 callsubr
        </CharString>
        <CharString name="underscoredbl">
          -131 -312 91 68 91 hstem
          -103 596 vstem
          -76 -153 rmoveto
          552 hlineto
          17 91 rlineto
          -552 hlineto
          -44 -250 rmoveto
          551 hlineto
          17 91 rlineto
          -551 hlineto
          endchar
        </CharString>
        <CharString name="uni00A0">
          -405 endchar
        </CharString>
        <CharString name="uni00AD">
          33 callsubr
        </CharString>
        <CharString name="uni00B2">
          -350 329 75 225 69 hstem
          79 63 callgsubr
          vstem
          31 329 72 callsubr
          -31 callsubr
          endchar
        </CharString>
        <CharString name="uni00B3">
          -350 325 78 callgsubr
          52 102 callsubr
          hintmask 11011100
          176 325 15 callgsubr
          3 vlineto
          hintmask 11011010
          43 18 27 24 47 vvcurveto
          61 -46 30 -71 -65 -55 -40 -62 -10 vhcurveto
          hintmask 11101010
          -2 -12 rlineto
          83 hlineto
          1 5 rlineto
          hintmask 11011010
          29 7 17 12 17 callgsubr
          hintmask 11011100
          -28 callsubr
          endchar
        </CharString>
        <CharString name="uni00B5">
          -42 callsubr
        </CharString>
        <CharString name="uni00B9">
          -350 330 75 185 55 41 -20 hstem
          50 252 vstem
          50 330 38 callsubr
          -16 callsubr
          endchar
        </CharString>
        <CharString name="uni0162">
          -72 50 callsubr
          54 -21 561 125 hstemhm
          258 108 hintmask 10111100
          85 686 rmoveto
          -22 -125 88 callgsubr
          -99 -561 rlineto
          28 hlineto
          -25 -77 -25 callsubr
          hintmask 01111100
          -9 -49 rlineto
          hintmask 10111100
          -9 callsubr
          11 33 rlineto
          31 hlineto
          99 561 49 callsubr
          endchar
        </CharString>
        <CharString name="uni0163">
          -350 50 callsubr
          21 112 -91 -21 426 112 hstemhm
          35 141 -46 108 hintmask 10001101
          225 414 rmoveto
          91 hlineto
          20 112 rlineto
          -91 102 callgsubr
          hintmask 10101110
          -144 hlineto
          -26 -148 rlineto
          -63 hlineto
          -20 -112 rlineto
          63 hlineto
          -40 -229 64 callsubr
          -35 11 -32 33 -20 vhcurveto
          hintmask 10101101
          -28 -83 -25 callsubr
          hintmask 01001101
          -9 -49 rlineto
          hintmask 10101101
          -9 callsubr
          hintmask 10001110
          7 21 rlineto
          3 hlineto
          26 36 8 8 21 hvcurveto
          hintmask 10010110
          17 96 rlineto
          -48 hlineto
          -24 -13 11 18 8 4 22 2 11 hvcurveto
          endchar
        </CharString>
        <CharString name="uni018F">
          75 -12 117 168 106 203 116 hstem
          47 146 392 148 vstem
          338 -12 rmoveto
          134 94 33 77 63 hvcurveto
          64 77 40 150 105 vvcurveto
          170 -106 98 -191 -97 -77 -17 -35 -58 vhcurveto
          -70 -41 -43 -67 -16 -92 rrcurveto
          143 hlineto
          95 16 79 41 98 hhcurveto
          120 54 -50 -102 -16 -1 -17 -3 -18 hvcurveto
          -518 hlineto
          -8 -48 rlineto
          -5 -30 -3 -28 -26 vvcurveto
          -165 104 -94 187 vhcurveto
          23 117 rmoveto
          -101 -67 36 90 13 1 14 3 15 hvcurveto
          364 hlineto
          -116 -32 -58 -52 -110 hhcurveto
          endchar
        </CharString>
        <CharString name="uni019D">
          39 33 callgsubr
          91 -21 686 -20 hstem
          -110 828 vstem
          -9 53 callsubr
          76 435 -96 callgsubr
          -126 -713 60 callgsubr
        </CharString>
        <CharString name="uni01C4">
          650 65 callgsubr
          47 135 56 callgsubr
          1023 733 -97 callgsubr
          -932 -868 rmoveto
          -67 callgsubr
          -274 hlineto
          554 -686 rmoveto
          -77 callgsubr
          -520 55 -62 callsubr
          endchar
        </CharString>
        <CharString name="uni01C5">
          75 callgsubr
          -98 135 hstemhm
          541 150 hintmask 00000000
          hintmask 10101100
          968 588 -97 callgsubr
          -877 -723 rmoveto
          304 hlineto
          113 90 39 65 63 hvcurveto
          75 78 37 114 120 vvcurveto
          hintmask 01110100
          184 -106 86 -181 vhcurveto
          -274 hlineto
          46 -563 -62 callsubr
          hintmask 10110100
          392 -123 rmoveto
          -81 callgsubr
          endchar
        </CharString>
        <CharString name="uni01C6">
          428 -12 119 -107 47 callsubr
          -103 115 50 135 103 callgsubr
          hintmask 00000000
          hintmask 10101100
          0 callsubr
          hintmask 01011100
          -40 callgsubr
          hintmask 10101100
          -144 71 -64 119 vhcurveto
          hintmask 01101100
          649 600 -97 callgsubr
          -189 -723 rmoveto
          -81 callgsubr
          hintmask 10011100
          -347 46 6 callgsubr
        </CharString>
        <CharString name="uni01C7">
          484 -12 122 -110 126 560 -20 hstemhm
          606 146 hintmask 01110000
          -19 callgsubr
          hintmask 10110000
          700 -698 -80 callsubr
        </CharString>
        <CharString name="uni01C8">
          206 33 callgsubr
          70 126 400 -20 93 124 -37 -20 hstemhm
          9 879 hintmask 11110100
          729 21 callsubr
          -742 -723 rmoveto
          515 hlineto
          22 126 rlineto
          -370 hlineto
          hintmask 11101100
          99 560 -64 callgsubr
          472 -868 -82 callsubr
        </CharString>
        <CharString name="uni01C9">
          54 callgsubr
          93 124 hstem
          13 542 14 callsubr
          256 -124 -34 callgsubr
          -149 -905 -82 callsubr
        </CharString>
        <CharString name="uni01CA">
          595 90 callgsubr
          hstemhm
          717 146 hintmask 10110000
          9 hmoveto
          hintmask 01110000
          141 hlineto
          69 394 -96 callgsubr
          hintmask 10110000
          811 -698 -80 callsubr
        </CharString>
        <CharString name="uni01CB">
          317 54 callgsubr
          93 87 -87 124 hstemhm
          9 990 hintmask 11101100
          840 21 callsubr
          -853 -723 rmoveto
          42 callgsubr
          104 callgsubr
          hintmask 11110100
          121 686 rlineto
          -141 hlineto
          -69 -394 rlineto
          -2 -11 -6 -47 0 vvcurveto
          -5 hlineto
          0 -19 46 -9 18 vhcurveto
          -196 388 rlineto
          -141 hlineto
          583 -868 -82 callsubr
        </CharString>
        <CharString name="uni01CC">
          206 33 callgsubr
          91 11 callgsubr
          93 124 45 callsubr
          hintmask 11011100
          729 21 callsubr
          -734 -723 -3 callgsubr
          87 callgsubr
          hintmask 11101100
          -97 callsubr
          -71 -65 -38 -45 76 callsubr
          hintmask 11011100
          87 callsubr
          492 -708 -82 callsubr
        </CharString>
        <CharString name="uni01CD">
          14 callgsubr
          45 callgsubr
          372 733 -97 callgsubr
          -344 -868 -102 callgsubr
        </CharString>
        <CharString name="uni01CE">
          -72 callgsubr
          82 135 40 callgsubr
          hintmask 01101100
          358 588 rmoveto
          128 135 rlineto
          -5 callsubr
          -62 -69 -45 69 rlineto
          -107 hlineto
          82 -135 rlineto
          hintmask 10011100
          248 21 callgsubr
          hintmask 01101100
          -104 callgsubr
          hintmask 10101100
          -30 callsubr
          hintmask 10011100
          -21 callsubr
          hintmask 01101100
          -99 callgsubr
          endchar
        </CharString>
        <CharString name="uni01CF">
          18 callsubr
          67 135 hstem
          9 391 vstem
          150 733 -97 callgsubr
          -59 -868 -53 callgsubr
        </CharString>
        <CharString name="uni01D0">
          -7 callsubr
          82 135 hstem
          13 362 vstem
          125 588 -97 callgsubr
          -30 0 callgsubr
        </CharString>
        <CharString name="uni01D1">
          36 callgsubr
          hstem
          -54 callsubr
          vstem
          374 733 -97 callgsubr
          55 -880 -107 callsubr
          endchar
        </CharString>
        <CharString name="uni01D2">
          -59 callgsubr
          50 135 hstem
          -49 callsubr
          vstem
          270 588 -97 callgsubr
          77 -98 callgsubr
        </CharString>
        <CharString name="uni01D3">
          -30 callgsubr
          67 135 46 callgsubr
          386 733 -97 callgsubr
          20 -880 -105 callsubr
          endchar
        </CharString>
        <CharString name="uni01D4">
          -55 callsubr
          82 135 41 callgsubr
          hintmask 01111000
          289 588 -97 callgsubr
          hintmask 10111000
          -20 17 callsubr
          hintmask 01111000
          -69 callgsubr
          hintmask 10111000
          -103 callsubr
          vhcurveto
          endchar
        </CharString>
        <CharString name="uni01D5">
          -30 callgsubr
          84 118 55 88 46 callgsubr
          330 923 -58 callsubr
          -58 -261 -101 callsubr
          -193 -880 -105 callsubr
          endchar
        </CharString>
        <CharString name="uni01D6">
          -55 callsubr
          99 118 55 88 41 callgsubr
          hintmask 01111100
          233 778 -58 callsubr
          -58 -261 -101 callsubr
          hintmask 10111100
          20 callsubr
          hintmask 01111100
          -69 callgsubr
          hintmask 10111100
          -103 callsubr
          vhcurveto
          endchar
        </CharString>
        <CharString name="uni01D7">
          -30 callgsubr
          84 118 35 132 46 callgsubr
          422 903 -100 callsubr
          -237 -285 -101 callsubr
          -193 -880 -105 callsubr
          endchar
        </CharString>
        <CharString name="uni01D8">
          -55 callsubr
          99 118 35 97 callsubr
          hintmask 01111100
          325 758 -100 callsubr
          -237 -285 -101 callsubr
          hintmask 10111100
          20 callsubr
          hintmask 01111100
          -69 callgsubr
          hintmask 10111100
          -103 callsubr
          vhcurveto
          endchar
        </CharString>
        <CharString name="uni01D9">
          -30 callgsubr
          84 118 32 135 46 callgsubr
          416 900 -97 callgsubr
          -47 -285 -101 callsubr
          -193 -880 -105 callsubr
          endchar
        </CharString>
        <CharString name="uni01DA">
          -55 callsubr
          99 118 32 135 41 callgsubr
          hintmask 01111100
          319 755 -97 callgsubr
          -47 -285 -101 callsubr
          hintmask 10111100
          20 callsubr
          hintmask 01111100
          -69 callgsubr
          hintmask 10111100
          -103 callsubr
          vhcurveto
          endchar
        </CharString>
        <CharString name="uni01DB">
          -30 callgsubr
          84 118 35 132 46 callgsubr
          427 903 -78 callgsubr
          -55 -282 -101 callsubr
          -193 -880 -105 callsubr
          endchar
        </CharString>
        <CharString name="uni01DC">
          -55 callsubr
          99 118 35 97 callsubr
          hintmask 01111100
          330 758 -78 callgsubr
          -55 -282 -101 callsubr
          hintmask 10111100
          20 callsubr
          hintmask 01111100
          -69 callgsubr
          hintmask 10111100
          -103 callsubr
          vhcurveto
          endchar
        </CharString>
        <CharString name="uni01EA">
          95 -182 69 101 -69 callsubr
          hstem
          34 149 148 112 154 150 vstem
          432 698 rmoveto
          -219 -140 -136 -216 -33 hvcurveto
          -18 callgsubr
          10 10 0 1 9 vhcurveto
          -24 -24 -21 -30 -40 -27 callgsubr
          2 vlineto
          141 47 90 120 22 167 rrcurveto
          71 callgsubr
          182 -117 87 -198 vhcurveto
          154 -370 -40 callsubr
          136 23 83 81 133 hhcurveto
          110 54 -58 -99 -37 callgsubr
          hvcurveto
          endchar
        </CharString>
        <CharString name="uni01EB">
          -72 -182 69 101 112 326 112 hstem
          24 133 78 112 83 133 vstem
          320 538 rmoveto
          -56 callgsubr
          14 hlineto
          -23 -23 -21 -30 -40 -27 callgsubr
          1 vlineto
          92 35 53 79 19 109 rrcurveto
          5 27 2 29 31 vvcurveto
          -3 129 -100 91 -140 -1 rrcurveto
          106 -279 -43 callgsubr
          13 108 49 52 88 -1 74 1 44 -42 1 -68 rrcurveto
          60 callsubr
        </CharString>
        <CharString name="uni01F1">
          650 0 123 440 89 callsubr
          29 callgsubr
          554 -686 rmoveto
          -77 callgsubr
          -520 55 -62 callsubr
          endchar
        </CharString>
        <CharString name="uni01F2">
          75 callgsubr
          hstemhm
          541 150 hintmask 10111000
          29 callgsubr
          hintmask 01111000
          46 -563 -62 callsubr
          hintmask 10111000
          392 -123 rmoveto
          -81 callgsubr
          endchar
        </CharString>
        <CharString name="uni01F3">
          428 -12 119 -107 47 callsubr
          -103 115 185 -20 103 callgsubr
          hintmask 00000000
          hintmask 10101100
          0 callsubr
          hintmask 01011100
          -40 callgsubr
          hintmask 10101100
          -144 71 -64 119 vhcurveto
          hintmask 01101100
          378 12 rmoveto
          -81 callgsubr
          hintmask 10011100
          -347 46 6 callgsubr
        </CharString>
        <CharString name="uni01F4">
          -25 callgsubr
          38 132 22 callgsubr
          hintmask 10111110
          641 865 -24 callgsubr
          228 -284 -92 callsubr
        </CharString>
        <CharString name="uni01F5">
          -36 callgsubr
          85 132 109 callgsubr
          hintmask 11101100
          266 591 -100 callsubr
          -152 -905 4 callsubr
          hintmask 11011100
          28 callgsubr
          hintmask 11101100
          -86 callgsubr
          28 callsubr
          -70 callsubr
        </CharString>
        <CharString name="uni0200">
          -71 callgsubr
          50 132 45 callgsubr
          313 736 -85 callsubr
          -457 -865 -102 callgsubr
        </CharString>
        <CharString name="uni0201">
          -72 callgsubr
          85 55 callsubr
          hintmask 01101100
          282 591 rmoveto
          -55 132 rlineto
          -133 hlineto
          -2 -3 104 callsubr
          280 hmoveto
          -55 132 rlineto
          -133 hlineto
          -2 -3 104 callsubr
          hintmask 10011100
          132 -464 rmoveto
          -74 callsubr
          hintmask 01101100
          -104 callgsubr
          hintmask 10101100
          -30 callsubr
          hintmask 10011100
          -21 callsubr
          hintmask 01101100
          -99 callgsubr
          endchar
        </CharString>
</ttFont>
